G04 EAGLE Gerber X2 export*
%TF.Part,Single*%
%TF.FileFunction,Copper,L1,Top,Mixed*%
%TF.FilePolarity,Positive*%
%TF.GenerationSoftware,Autodesk,EAGLE,9.1.3*%
%TF.CreationDate,2020-01-09T21:36:22Z*%
G75*
%MOMM*%
%FSLAX34Y34*%
%LPD*%
%AMOC8*
5,1,8,0,0,1.08239X$1,22.5*%
G01*
%ADD10C,1.879600*%
%ADD11C,1.676400*%
%ADD12C,1.473200*%
%ADD13C,0.254000*%

G36*
X855070Y213364D02*
X855070Y213364D01*
X855110Y213363D01*
X856673Y213493D01*
X856974Y213397D01*
X857007Y213392D01*
X857039Y213379D01*
X857206Y213361D01*
X1777347Y213361D01*
X1777379Y213366D01*
X1777459Y213369D01*
X1779392Y213658D01*
X1779415Y213665D01*
X1779536Y213694D01*
X1783682Y215182D01*
X1783696Y215190D01*
X1783711Y215194D01*
X1783859Y215273D01*
X1787478Y217784D01*
X1787490Y217795D01*
X1787503Y217802D01*
X1787625Y217917D01*
X1790472Y221279D01*
X1790480Y221293D01*
X1790491Y221303D01*
X1790579Y221446D01*
X1792458Y225430D01*
X1792463Y225445D01*
X1792471Y225459D01*
X1792519Y225619D01*
X1793303Y229954D01*
X1793303Y229978D01*
X1793315Y230103D01*
X1793301Y230891D01*
X1793300Y230900D01*
X1793301Y230909D01*
X1793291Y230954D01*
X1793290Y231008D01*
X1793263Y231101D01*
X1793257Y231133D01*
X1793250Y231146D01*
X1793243Y231169D01*
X1793239Y231179D01*
X1793239Y232747D01*
X1793236Y232770D01*
X1793237Y232810D01*
X1793107Y234373D01*
X1793203Y234674D01*
X1793208Y234707D01*
X1793221Y234739D01*
X1793239Y234906D01*
X1793239Y913747D01*
X1793234Y913779D01*
X1793231Y913859D01*
X1792942Y915792D01*
X1792935Y915815D01*
X1792906Y915936D01*
X1791418Y920082D01*
X1791410Y920096D01*
X1791406Y920111D01*
X1791327Y920259D01*
X1788816Y923878D01*
X1788805Y923890D01*
X1788798Y923903D01*
X1788683Y924025D01*
X1785321Y926872D01*
X1785307Y926880D01*
X1785297Y926891D01*
X1785154Y926979D01*
X1781170Y928858D01*
X1781155Y928863D01*
X1781141Y928871D01*
X1780981Y928919D01*
X1777065Y929627D01*
X1777035Y929628D01*
X1776930Y929639D01*
X1773853Y929639D01*
X1773830Y929636D01*
X1773790Y929637D01*
X1772227Y929507D01*
X1771926Y929603D01*
X1771893Y929608D01*
X1771861Y929621D01*
X1771694Y929639D01*
X851574Y929639D01*
X851541Y929634D01*
X851451Y929629D01*
X849068Y929241D01*
X849063Y929240D01*
X849057Y929239D01*
X848896Y929192D01*
X844028Y927151D01*
X843997Y927132D01*
X843963Y927120D01*
X843825Y927026D01*
X839826Y923580D01*
X839803Y923552D01*
X839774Y923531D01*
X839672Y923398D01*
X836933Y918885D01*
X836919Y918852D01*
X836899Y918823D01*
X836842Y918665D01*
X835632Y913526D01*
X835632Y913520D01*
X835630Y913515D01*
X835612Y913348D01*
X835617Y912074D01*
X835628Y912011D01*
X835629Y911947D01*
X835653Y911864D01*
X835658Y911831D01*
X835661Y911827D01*
X835661Y910253D01*
X835664Y910230D01*
X835663Y910190D01*
X835793Y908627D01*
X835697Y908326D01*
X835692Y908293D01*
X835679Y908261D01*
X835661Y908094D01*
X835661Y229261D01*
X835666Y229228D01*
X835670Y229145D01*
X835993Y227046D01*
X835998Y227034D01*
X836034Y226892D01*
X837716Y222475D01*
X837728Y222455D01*
X837734Y222433D01*
X837819Y222288D01*
X840660Y218511D01*
X840677Y218495D01*
X840689Y218475D01*
X840811Y218360D01*
X844588Y215519D01*
X844609Y215509D01*
X844626Y215493D01*
X844775Y215416D01*
X849192Y213734D01*
X849204Y213732D01*
X849346Y213693D01*
X851445Y213370D01*
X851478Y213370D01*
X851561Y213361D01*
X855047Y213361D01*
X855070Y213364D01*
G37*
%LPC*%
G36*
X1102929Y330493D02*
X1102929Y330493D01*
X1099288Y332001D01*
X1096501Y334788D01*
X1094993Y338429D01*
X1094993Y342371D01*
X1096501Y346012D01*
X1099288Y348799D01*
X1102929Y350307D01*
X1106871Y350307D01*
X1109218Y349335D01*
X1109331Y349308D01*
X1109445Y349279D01*
X1109451Y349280D01*
X1109457Y349278D01*
X1109574Y349289D01*
X1109690Y349298D01*
X1109696Y349301D01*
X1109702Y349301D01*
X1109810Y349349D01*
X1109916Y349395D01*
X1109922Y349399D01*
X1109927Y349401D01*
X1109940Y349414D01*
X1110047Y349500D01*
X1216182Y455635D01*
X1216235Y455709D01*
X1216295Y455778D01*
X1216307Y455808D01*
X1216326Y455834D01*
X1216353Y455921D01*
X1216387Y456006D01*
X1216391Y456047D01*
X1216398Y456069D01*
X1216397Y456102D01*
X1216405Y456173D01*
X1216405Y631444D01*
X1216402Y631464D01*
X1216404Y631483D01*
X1216382Y631585D01*
X1216366Y631687D01*
X1216356Y631704D01*
X1216352Y631724D01*
X1216299Y631813D01*
X1216250Y631904D01*
X1216236Y631918D01*
X1216226Y631935D01*
X1216147Y632002D01*
X1216072Y632074D01*
X1216054Y632082D01*
X1216039Y632095D01*
X1215943Y632134D01*
X1215849Y632177D01*
X1215829Y632179D01*
X1215811Y632187D01*
X1215644Y632205D01*
X1205342Y632205D01*
X1185470Y652078D01*
X1185375Y652146D01*
X1185281Y652216D01*
X1185275Y652218D01*
X1185270Y652222D01*
X1185159Y652256D01*
X1185047Y652292D01*
X1185041Y652292D01*
X1185035Y652294D01*
X1184918Y652291D01*
X1184801Y652290D01*
X1184794Y652288D01*
X1184789Y652288D01*
X1184771Y652281D01*
X1184640Y652243D01*
X1182868Y651509D01*
X1179332Y651509D01*
X1176064Y652863D01*
X1173563Y655364D01*
X1172209Y658632D01*
X1172209Y662168D01*
X1173563Y665436D01*
X1176064Y667937D01*
X1179332Y669291D01*
X1182868Y669291D01*
X1184640Y668557D01*
X1184754Y668530D01*
X1184867Y668502D01*
X1184873Y668502D01*
X1184879Y668501D01*
X1184996Y668512D01*
X1185112Y668521D01*
X1185118Y668523D01*
X1185124Y668524D01*
X1185232Y668572D01*
X1185339Y668617D01*
X1185344Y668622D01*
X1185349Y668624D01*
X1185363Y668637D01*
X1185470Y668722D01*
X1203482Y686735D01*
X1203535Y686809D01*
X1203595Y686878D01*
X1203607Y686908D01*
X1203626Y686934D01*
X1203653Y687021D01*
X1203687Y687106D01*
X1203691Y687147D01*
X1203698Y687169D01*
X1203697Y687202D01*
X1203705Y687273D01*
X1203705Y824027D01*
X1203691Y824117D01*
X1203683Y824208D01*
X1203671Y824238D01*
X1203666Y824270D01*
X1203623Y824350D01*
X1203587Y824434D01*
X1203561Y824466D01*
X1203550Y824487D01*
X1203527Y824509D01*
X1203482Y824565D01*
X1192865Y835182D01*
X1192791Y835235D01*
X1192722Y835295D01*
X1192692Y835307D01*
X1192666Y835326D01*
X1192579Y835353D01*
X1192494Y835387D01*
X1192453Y835391D01*
X1192431Y835398D01*
X1192398Y835397D01*
X1192327Y835405D01*
X979373Y835405D01*
X979283Y835391D01*
X979192Y835383D01*
X979162Y835371D01*
X979130Y835366D01*
X979050Y835323D01*
X978966Y835287D01*
X978934Y835261D01*
X978913Y835250D01*
X978891Y835227D01*
X978835Y835182D01*
X910022Y766370D01*
X909954Y766275D01*
X909884Y766181D01*
X909882Y766175D01*
X909878Y766170D01*
X909844Y766059D01*
X909808Y765947D01*
X909808Y765941D01*
X909806Y765935D01*
X909809Y765818D01*
X909810Y765701D01*
X909812Y765694D01*
X909812Y765689D01*
X909819Y765671D01*
X909857Y765540D01*
X910591Y763768D01*
X910591Y760232D01*
X909237Y756964D01*
X906736Y754463D01*
X903468Y753109D01*
X899932Y753109D01*
X896664Y754463D01*
X894163Y756964D01*
X892809Y760232D01*
X892809Y763768D01*
X894163Y767036D01*
X896664Y769537D01*
X899932Y770891D01*
X903468Y770891D01*
X905240Y770157D01*
X905354Y770130D01*
X905467Y770102D01*
X905473Y770102D01*
X905479Y770101D01*
X905596Y770112D01*
X905712Y770121D01*
X905718Y770123D01*
X905724Y770124D01*
X905832Y770172D01*
X905939Y770217D01*
X905944Y770222D01*
X905949Y770224D01*
X905963Y770237D01*
X906070Y770322D01*
X974882Y839135D01*
X976742Y840995D01*
X1205027Y840995D01*
X1205117Y841009D01*
X1205208Y841017D01*
X1205238Y841029D01*
X1205270Y841034D01*
X1205350Y841077D01*
X1205434Y841113D01*
X1205466Y841139D01*
X1205487Y841150D01*
X1205509Y841173D01*
X1205565Y841218D01*
X1260123Y895775D01*
X1260191Y895870D01*
X1260261Y895964D01*
X1260263Y895970D01*
X1260266Y895975D01*
X1260300Y896086D01*
X1260337Y896198D01*
X1260337Y896204D01*
X1260339Y896210D01*
X1260336Y896327D01*
X1260335Y896444D01*
X1260332Y896451D01*
X1260332Y896456D01*
X1260326Y896473D01*
X1260288Y896605D01*
X1259077Y899527D01*
X1259077Y903873D01*
X1260740Y907887D01*
X1263813Y910960D01*
X1267827Y912623D01*
X1272173Y912623D01*
X1276187Y910960D01*
X1279260Y907887D01*
X1280923Y903873D01*
X1280923Y899527D01*
X1279712Y896605D01*
X1279686Y896491D01*
X1279657Y896378D01*
X1279657Y896371D01*
X1279656Y896365D01*
X1279667Y896248D01*
X1279676Y896132D01*
X1279678Y896127D01*
X1279679Y896120D01*
X1279727Y896013D01*
X1279772Y895906D01*
X1279777Y895900D01*
X1279779Y895896D01*
X1279792Y895882D01*
X1279877Y895775D01*
X1385235Y790418D01*
X1385309Y790365D01*
X1385378Y790305D01*
X1385408Y790293D01*
X1385434Y790274D01*
X1385521Y790247D01*
X1385606Y790213D01*
X1385647Y790209D01*
X1385669Y790202D01*
X1385702Y790203D01*
X1385773Y790195D01*
X1436626Y790195D01*
X1436741Y790214D01*
X1436857Y790231D01*
X1436863Y790233D01*
X1436869Y790234D01*
X1436972Y790289D01*
X1437076Y790342D01*
X1437081Y790347D01*
X1437086Y790350D01*
X1437166Y790434D01*
X1437249Y790518D01*
X1437252Y790524D01*
X1437256Y790528D01*
X1437264Y790545D01*
X1437330Y790665D01*
X1438540Y793587D01*
X1441613Y796660D01*
X1445627Y798323D01*
X1449973Y798323D01*
X1453987Y796660D01*
X1457060Y793587D01*
X1458723Y789573D01*
X1458723Y785227D01*
X1457060Y781213D01*
X1453987Y778140D01*
X1449973Y776477D01*
X1445627Y776477D01*
X1441613Y778140D01*
X1438540Y781213D01*
X1437330Y784135D01*
X1437268Y784235D01*
X1437208Y784335D01*
X1437203Y784339D01*
X1437200Y784344D01*
X1437110Y784419D01*
X1437021Y784495D01*
X1437015Y784497D01*
X1437011Y784501D01*
X1436902Y784543D01*
X1436793Y784587D01*
X1436785Y784588D01*
X1436781Y784589D01*
X1436763Y784590D01*
X1436626Y784605D01*
X1383142Y784605D01*
X1381282Y786465D01*
X1275925Y891823D01*
X1275830Y891891D01*
X1275736Y891961D01*
X1275730Y891963D01*
X1275725Y891966D01*
X1275614Y892000D01*
X1275502Y892037D01*
X1275496Y892037D01*
X1275490Y892039D01*
X1275373Y892036D01*
X1275256Y892035D01*
X1275249Y892032D01*
X1275244Y892032D01*
X1275227Y892026D01*
X1275095Y891988D01*
X1272173Y890777D01*
X1267827Y890777D01*
X1264905Y891988D01*
X1264791Y892014D01*
X1264678Y892043D01*
X1264671Y892043D01*
X1264665Y892044D01*
X1264549Y892033D01*
X1264432Y892024D01*
X1264427Y892022D01*
X1264420Y892021D01*
X1264313Y891973D01*
X1264206Y891928D01*
X1264200Y891923D01*
X1264196Y891921D01*
X1264182Y891908D01*
X1264075Y891823D01*
X1209518Y837265D01*
X1207658Y835405D01*
X1202385Y835405D01*
X1202314Y835394D01*
X1202242Y835392D01*
X1202193Y835374D01*
X1202142Y835366D01*
X1202079Y835332D01*
X1202011Y835307D01*
X1201971Y835275D01*
X1201925Y835250D01*
X1201875Y835198D01*
X1201819Y835154D01*
X1201791Y835110D01*
X1201755Y835072D01*
X1201725Y835007D01*
X1201686Y834947D01*
X1201674Y834896D01*
X1201652Y834849D01*
X1201644Y834778D01*
X1201626Y834708D01*
X1201630Y834656D01*
X1201625Y834605D01*
X1201640Y834534D01*
X1201645Y834463D01*
X1201666Y834415D01*
X1201677Y834364D01*
X1201714Y834303D01*
X1201742Y834237D01*
X1201787Y834181D01*
X1201803Y834153D01*
X1201821Y834138D01*
X1201847Y834106D01*
X1209295Y826658D01*
X1209295Y684642D01*
X1207435Y682782D01*
X1189422Y664770D01*
X1189354Y664675D01*
X1189284Y664581D01*
X1189282Y664575D01*
X1189278Y664570D01*
X1189244Y664459D01*
X1189208Y664347D01*
X1189208Y664341D01*
X1189206Y664335D01*
X1189209Y664218D01*
X1189210Y664101D01*
X1189212Y664094D01*
X1189212Y664089D01*
X1189219Y664071D01*
X1189257Y663940D01*
X1189991Y662168D01*
X1189991Y658632D01*
X1189257Y656860D01*
X1189230Y656746D01*
X1189202Y656633D01*
X1189202Y656627D01*
X1189201Y656621D01*
X1189212Y656504D01*
X1189221Y656388D01*
X1189223Y656382D01*
X1189224Y656376D01*
X1189272Y656268D01*
X1189317Y656161D01*
X1189322Y656156D01*
X1189324Y656151D01*
X1189337Y656137D01*
X1189422Y656030D01*
X1207435Y638018D01*
X1207509Y637965D01*
X1207578Y637905D01*
X1207608Y637893D01*
X1207634Y637874D01*
X1207721Y637847D01*
X1207806Y637813D01*
X1207847Y637809D01*
X1207869Y637802D01*
X1207902Y637803D01*
X1207973Y637795D01*
X1220358Y637795D01*
X1221995Y636158D01*
X1221995Y453542D01*
X1220135Y451682D01*
X1114000Y345547D01*
X1113932Y345453D01*
X1113862Y345359D01*
X1113860Y345353D01*
X1113856Y345347D01*
X1113822Y345237D01*
X1113785Y345125D01*
X1113786Y345118D01*
X1113784Y345112D01*
X1113787Y344996D01*
X1113788Y344879D01*
X1113790Y344872D01*
X1113790Y344867D01*
X1113796Y344849D01*
X1113835Y344718D01*
X1114807Y342371D01*
X1114807Y338429D01*
X1113299Y334788D01*
X1110512Y332001D01*
X1106871Y330493D01*
X1102929Y330493D01*
G37*
%LPD*%
%LPC*%
G36*
X951342Y276605D02*
X951342Y276605D01*
X924305Y303642D01*
X924305Y600626D01*
X924286Y600740D01*
X924269Y600857D01*
X924267Y600862D01*
X924266Y600868D01*
X924211Y600971D01*
X924158Y601076D01*
X924153Y601080D01*
X924150Y601086D01*
X924066Y601166D01*
X923982Y601248D01*
X923976Y601252D01*
X923972Y601255D01*
X923955Y601263D01*
X923835Y601329D01*
X922064Y602063D01*
X919563Y604564D01*
X918209Y607832D01*
X918209Y611368D01*
X919563Y614636D01*
X922064Y617137D01*
X925332Y618491D01*
X928868Y618491D01*
X932136Y617137D01*
X934637Y614636D01*
X935991Y611368D01*
X935991Y607832D01*
X934637Y604564D01*
X932136Y602063D01*
X930365Y601329D01*
X930265Y601267D01*
X930165Y601207D01*
X930161Y601203D01*
X930156Y601199D01*
X930081Y601110D01*
X930005Y601021D01*
X930003Y601015D01*
X929999Y601010D01*
X929957Y600902D01*
X929913Y600792D01*
X929912Y600785D01*
X929911Y600780D01*
X929910Y600762D01*
X929895Y600626D01*
X929895Y306273D01*
X929909Y306183D01*
X929917Y306092D01*
X929929Y306062D01*
X929934Y306030D01*
X929977Y305950D01*
X930013Y305866D01*
X930039Y305834D01*
X930050Y305813D01*
X930073Y305791D01*
X930118Y305735D01*
X953435Y282418D01*
X953509Y282365D01*
X953578Y282305D01*
X953608Y282293D01*
X953634Y282274D01*
X953721Y282247D01*
X953806Y282213D01*
X953847Y282209D01*
X953869Y282202D01*
X953902Y282203D01*
X953973Y282195D01*
X1192327Y282195D01*
X1192417Y282209D01*
X1192508Y282217D01*
X1192538Y282229D01*
X1192570Y282234D01*
X1192650Y282277D01*
X1192734Y282313D01*
X1192766Y282339D01*
X1192787Y282350D01*
X1192809Y282373D01*
X1192865Y282418D01*
X1234723Y324275D01*
X1234791Y324370D01*
X1234861Y324464D01*
X1234863Y324470D01*
X1234866Y324475D01*
X1234900Y324586D01*
X1234937Y324698D01*
X1234937Y324704D01*
X1234939Y324710D01*
X1234936Y324827D01*
X1234935Y324944D01*
X1234932Y324951D01*
X1234932Y324956D01*
X1234926Y324973D01*
X1234888Y325105D01*
X1233677Y328027D01*
X1233677Y332373D01*
X1235340Y336387D01*
X1238413Y339460D01*
X1242427Y341123D01*
X1246773Y341123D01*
X1250787Y339460D01*
X1253860Y336387D01*
X1255523Y332373D01*
X1255523Y328027D01*
X1253860Y324013D01*
X1250787Y320940D01*
X1246773Y319277D01*
X1242427Y319277D01*
X1239505Y320488D01*
X1239391Y320514D01*
X1239278Y320543D01*
X1239271Y320543D01*
X1239265Y320544D01*
X1239149Y320533D01*
X1239032Y320524D01*
X1239027Y320522D01*
X1239020Y320521D01*
X1238913Y320473D01*
X1238806Y320428D01*
X1238800Y320423D01*
X1238796Y320421D01*
X1238782Y320408D01*
X1238675Y320323D01*
X1194958Y276605D01*
X951342Y276605D01*
G37*
%LPD*%
%LPC*%
G36*
X964042Y289305D02*
X964042Y289305D01*
X949705Y303642D01*
X949705Y600626D01*
X949686Y600740D01*
X949669Y600857D01*
X949667Y600862D01*
X949666Y600868D01*
X949611Y600971D01*
X949558Y601076D01*
X949553Y601080D01*
X949550Y601086D01*
X949466Y601166D01*
X949382Y601248D01*
X949376Y601252D01*
X949372Y601255D01*
X949355Y601263D01*
X949235Y601329D01*
X947464Y602063D01*
X944963Y604564D01*
X943609Y607832D01*
X943609Y611368D01*
X944963Y614636D01*
X947464Y617137D01*
X950732Y618491D01*
X954268Y618491D01*
X957536Y617137D01*
X960037Y614636D01*
X961391Y611368D01*
X961391Y607832D01*
X960037Y604564D01*
X957536Y602063D01*
X955765Y601329D01*
X955665Y601267D01*
X955565Y601207D01*
X955561Y601203D01*
X955556Y601199D01*
X955481Y601110D01*
X955405Y601021D01*
X955403Y601015D01*
X955399Y601010D01*
X955357Y600902D01*
X955313Y600792D01*
X955312Y600785D01*
X955311Y600780D01*
X955310Y600762D01*
X955295Y600626D01*
X955295Y306273D01*
X955309Y306183D01*
X955317Y306092D01*
X955329Y306062D01*
X955334Y306030D01*
X955377Y305950D01*
X955413Y305866D01*
X955439Y305834D01*
X955450Y305813D01*
X955473Y305791D01*
X955518Y305735D01*
X966135Y295118D01*
X966209Y295065D01*
X966278Y295005D01*
X966308Y294993D01*
X966334Y294974D01*
X966421Y294947D01*
X966506Y294913D01*
X966547Y294909D01*
X966569Y294902D01*
X966602Y294903D01*
X966673Y294895D01*
X1179627Y294895D01*
X1179717Y294909D01*
X1179808Y294917D01*
X1179838Y294929D01*
X1179870Y294934D01*
X1179950Y294977D01*
X1180034Y295013D01*
X1180066Y295039D01*
X1180087Y295050D01*
X1180109Y295073D01*
X1180165Y295118D01*
X1241582Y356535D01*
X1241635Y356609D01*
X1241695Y356678D01*
X1241707Y356708D01*
X1241726Y356734D01*
X1241753Y356821D01*
X1241787Y356906D01*
X1241791Y356947D01*
X1241798Y356969D01*
X1241797Y357002D01*
X1241805Y357073D01*
X1241805Y357126D01*
X1241792Y357207D01*
X1241792Y357215D01*
X1241790Y357221D01*
X1241786Y357241D01*
X1241769Y357357D01*
X1241767Y357363D01*
X1241766Y357369D01*
X1241711Y357472D01*
X1241658Y357576D01*
X1241653Y357581D01*
X1241650Y357586D01*
X1241566Y357666D01*
X1241482Y357749D01*
X1241476Y357752D01*
X1241472Y357756D01*
X1241455Y357764D01*
X1241335Y357830D01*
X1238413Y359040D01*
X1235340Y362113D01*
X1233677Y366127D01*
X1233677Y370473D01*
X1235340Y374487D01*
X1238413Y377560D01*
X1242427Y379223D01*
X1246773Y379223D01*
X1250787Y377560D01*
X1253860Y374487D01*
X1255523Y370473D01*
X1255523Y366127D01*
X1253860Y362113D01*
X1250787Y359040D01*
X1247865Y357830D01*
X1247765Y357768D01*
X1247665Y357708D01*
X1247661Y357703D01*
X1247656Y357700D01*
X1247581Y357610D01*
X1247505Y357521D01*
X1247503Y357515D01*
X1247499Y357511D01*
X1247457Y357402D01*
X1247413Y357293D01*
X1247412Y357285D01*
X1247411Y357281D01*
X1247410Y357263D01*
X1247395Y357126D01*
X1247395Y354442D01*
X1182258Y289305D01*
X964042Y289305D01*
G37*
%LPD*%
%LPC*%
G36*
X989442Y302005D02*
X989442Y302005D01*
X975105Y316342D01*
X975105Y600626D01*
X975086Y600740D01*
X975069Y600857D01*
X975067Y600862D01*
X975066Y600868D01*
X975011Y600971D01*
X974958Y601076D01*
X974953Y601080D01*
X974950Y601086D01*
X974866Y601166D01*
X974782Y601248D01*
X974776Y601252D01*
X974772Y601255D01*
X974755Y601263D01*
X974635Y601329D01*
X972864Y602063D01*
X970363Y604564D01*
X969009Y607832D01*
X969009Y611368D01*
X970363Y614636D01*
X972864Y617137D01*
X976132Y618491D01*
X979668Y618491D01*
X982936Y617137D01*
X985437Y614636D01*
X986791Y611368D01*
X986791Y607832D01*
X985437Y604564D01*
X982936Y602063D01*
X981165Y601329D01*
X981065Y601267D01*
X980965Y601207D01*
X980961Y601203D01*
X980956Y601199D01*
X980881Y601110D01*
X980805Y601021D01*
X980803Y601015D01*
X980799Y601010D01*
X980757Y600902D01*
X980713Y600792D01*
X980712Y600785D01*
X980711Y600780D01*
X980710Y600762D01*
X980695Y600626D01*
X980695Y318973D01*
X980709Y318883D01*
X980717Y318792D01*
X980729Y318762D01*
X980734Y318730D01*
X980777Y318650D01*
X980813Y318566D01*
X980839Y318534D01*
X980850Y318513D01*
X980873Y318491D01*
X980918Y318435D01*
X991535Y307818D01*
X991609Y307765D01*
X991678Y307705D01*
X991708Y307693D01*
X991734Y307674D01*
X991821Y307647D01*
X991906Y307613D01*
X991947Y307609D01*
X991969Y307602D01*
X992002Y307603D01*
X992073Y307595D01*
X1166927Y307595D01*
X1167017Y307609D01*
X1167108Y307617D01*
X1167138Y307629D01*
X1167170Y307634D01*
X1167250Y307677D01*
X1167334Y307713D01*
X1167366Y307739D01*
X1167387Y307750D01*
X1167409Y307773D01*
X1167465Y307818D01*
X1216182Y356535D01*
X1216235Y356609D01*
X1216295Y356678D01*
X1216307Y356708D01*
X1216326Y356734D01*
X1216353Y356821D01*
X1216387Y356906D01*
X1216391Y356947D01*
X1216398Y356969D01*
X1216397Y357002D01*
X1216405Y357073D01*
X1216405Y382158D01*
X1234723Y400475D01*
X1234791Y400570D01*
X1234861Y400664D01*
X1234863Y400670D01*
X1234866Y400675D01*
X1234900Y400786D01*
X1234937Y400898D01*
X1234937Y400904D01*
X1234939Y400910D01*
X1234936Y401027D01*
X1234935Y401144D01*
X1234932Y401151D01*
X1234932Y401156D01*
X1234926Y401173D01*
X1234888Y401305D01*
X1233677Y404227D01*
X1233677Y408573D01*
X1235340Y412587D01*
X1238413Y415660D01*
X1242427Y417323D01*
X1246773Y417323D01*
X1250787Y415660D01*
X1253860Y412587D01*
X1255523Y408573D01*
X1255523Y404227D01*
X1253860Y400213D01*
X1250787Y397140D01*
X1246773Y395477D01*
X1242427Y395477D01*
X1239505Y396688D01*
X1239391Y396714D01*
X1239278Y396743D01*
X1239271Y396743D01*
X1239265Y396744D01*
X1239149Y396733D01*
X1239032Y396724D01*
X1239027Y396722D01*
X1239020Y396721D01*
X1238913Y396673D01*
X1238806Y396628D01*
X1238800Y396623D01*
X1238796Y396621D01*
X1238782Y396608D01*
X1238675Y396523D01*
X1222218Y380065D01*
X1222165Y379991D01*
X1222105Y379922D01*
X1222093Y379892D01*
X1222074Y379866D01*
X1222047Y379779D01*
X1222013Y379694D01*
X1222009Y379653D01*
X1222002Y379631D01*
X1222003Y379598D01*
X1221995Y379527D01*
X1221995Y354442D01*
X1169558Y302005D01*
X989442Y302005D01*
G37*
%LPD*%
%LPC*%
G36*
X865314Y855189D02*
X865314Y855189D01*
X855403Y860238D01*
X847538Y868104D01*
X842489Y878014D01*
X840749Y889000D01*
X842489Y899986D01*
X847538Y909897D01*
X855403Y917762D01*
X865314Y922811D01*
X876300Y924551D01*
X887286Y922811D01*
X897197Y917762D01*
X905062Y909897D01*
X910111Y899986D01*
X911851Y889000D01*
X910111Y878014D01*
X905062Y868103D01*
X897197Y860238D01*
X887286Y855189D01*
X876300Y853449D01*
X865314Y855189D01*
G37*
%LPD*%
%LPC*%
G36*
X865314Y220189D02*
X865314Y220189D01*
X855403Y225238D01*
X847538Y233103D01*
X842489Y243014D01*
X840749Y254000D01*
X842489Y264986D01*
X847538Y274897D01*
X855403Y282762D01*
X865314Y287811D01*
X876300Y289551D01*
X887286Y287811D01*
X897197Y282762D01*
X905062Y274896D01*
X910111Y264986D01*
X911851Y254000D01*
X910111Y243014D01*
X905062Y233103D01*
X897197Y225238D01*
X887286Y220189D01*
X876300Y218449D01*
X865314Y220189D01*
G37*
%LPD*%
%LPC*%
G36*
X1741614Y220189D02*
X1741614Y220189D01*
X1731703Y225238D01*
X1723838Y233103D01*
X1718789Y243014D01*
X1717049Y254000D01*
X1718789Y264986D01*
X1723838Y274897D01*
X1731703Y282762D01*
X1741614Y287811D01*
X1752600Y289551D01*
X1763586Y287811D01*
X1773497Y282762D01*
X1781362Y274897D01*
X1786411Y264986D01*
X1788151Y254000D01*
X1786411Y243014D01*
X1781362Y233103D01*
X1773496Y225238D01*
X1763586Y220189D01*
X1752600Y218449D01*
X1741614Y220189D01*
G37*
%LPD*%
%LPC*%
G36*
X1741614Y855189D02*
X1741614Y855189D01*
X1731703Y860238D01*
X1723838Y868103D01*
X1718789Y878014D01*
X1717049Y889000D01*
X1718789Y899986D01*
X1723838Y909897D01*
X1731703Y917762D01*
X1741614Y922811D01*
X1752600Y924551D01*
X1763586Y922811D01*
X1773497Y917762D01*
X1781362Y909897D01*
X1786411Y899986D01*
X1788151Y889000D01*
X1786411Y878014D01*
X1781362Y868103D01*
X1773497Y860238D01*
X1763586Y855189D01*
X1752600Y853449D01*
X1741614Y855189D01*
G37*
%LPD*%
%LPC*%
G36*
X1014842Y314705D02*
X1014842Y314705D01*
X1000505Y329042D01*
X1000505Y600626D01*
X1000486Y600740D01*
X1000469Y600857D01*
X1000467Y600862D01*
X1000466Y600868D01*
X1000411Y600971D01*
X1000358Y601076D01*
X1000353Y601080D01*
X1000350Y601086D01*
X1000266Y601166D01*
X1000182Y601248D01*
X1000176Y601252D01*
X1000172Y601255D01*
X1000155Y601263D01*
X1000035Y601329D01*
X998264Y602063D01*
X995763Y604564D01*
X994409Y607832D01*
X994409Y611368D01*
X995763Y614636D01*
X998264Y617137D01*
X1001532Y618491D01*
X1005068Y618491D01*
X1008336Y617137D01*
X1010837Y614636D01*
X1012191Y611368D01*
X1012191Y607832D01*
X1010837Y604564D01*
X1008336Y602063D01*
X1006565Y601329D01*
X1006465Y601267D01*
X1006365Y601207D01*
X1006361Y601203D01*
X1006356Y601199D01*
X1006281Y601110D01*
X1006205Y601021D01*
X1006203Y601015D01*
X1006199Y601010D01*
X1006157Y600902D01*
X1006113Y600792D01*
X1006112Y600785D01*
X1006111Y600780D01*
X1006110Y600762D01*
X1006095Y600626D01*
X1006095Y331673D01*
X1006109Y331583D01*
X1006117Y331492D01*
X1006129Y331462D01*
X1006134Y331430D01*
X1006177Y331350D01*
X1006213Y331266D01*
X1006239Y331234D01*
X1006250Y331213D01*
X1006273Y331191D01*
X1006318Y331135D01*
X1016935Y320518D01*
X1017009Y320465D01*
X1017078Y320405D01*
X1017108Y320393D01*
X1017134Y320374D01*
X1017221Y320347D01*
X1017306Y320313D01*
X1017347Y320309D01*
X1017369Y320302D01*
X1017402Y320303D01*
X1017473Y320295D01*
X1141527Y320295D01*
X1141617Y320309D01*
X1141708Y320317D01*
X1141738Y320329D01*
X1141770Y320334D01*
X1141850Y320377D01*
X1141934Y320413D01*
X1141966Y320439D01*
X1141987Y320450D01*
X1142009Y320473D01*
X1142065Y320518D01*
X1203482Y381935D01*
X1203535Y382009D01*
X1203595Y382078D01*
X1203607Y382108D01*
X1203626Y382134D01*
X1203653Y382221D01*
X1203687Y382306D01*
X1203691Y382347D01*
X1203698Y382369D01*
X1203697Y382402D01*
X1203705Y382473D01*
X1203705Y420258D01*
X1230742Y447295D01*
X1233426Y447295D01*
X1233541Y447314D01*
X1233657Y447331D01*
X1233663Y447333D01*
X1233669Y447334D01*
X1233772Y447389D01*
X1233876Y447442D01*
X1233881Y447447D01*
X1233886Y447450D01*
X1233966Y447534D01*
X1234049Y447618D01*
X1234052Y447624D01*
X1234056Y447628D01*
X1234064Y447645D01*
X1234130Y447765D01*
X1235340Y450687D01*
X1238413Y453760D01*
X1242427Y455423D01*
X1246773Y455423D01*
X1250787Y453760D01*
X1253860Y450687D01*
X1255523Y446673D01*
X1255523Y442327D01*
X1253860Y438313D01*
X1250787Y435240D01*
X1246773Y433577D01*
X1242427Y433577D01*
X1238413Y435240D01*
X1235340Y438313D01*
X1234130Y441235D01*
X1234068Y441335D01*
X1234008Y441435D01*
X1234003Y441439D01*
X1234000Y441444D01*
X1233910Y441519D01*
X1233821Y441595D01*
X1233815Y441597D01*
X1233811Y441601D01*
X1233702Y441643D01*
X1233593Y441687D01*
X1233585Y441688D01*
X1233581Y441689D01*
X1233563Y441690D01*
X1233426Y441705D01*
X1233373Y441705D01*
X1233339Y441700D01*
X1233335Y441700D01*
X1233329Y441698D01*
X1233283Y441691D01*
X1233192Y441683D01*
X1233162Y441671D01*
X1233130Y441666D01*
X1233050Y441623D01*
X1232966Y441587D01*
X1232934Y441561D01*
X1232913Y441550D01*
X1232891Y441527D01*
X1232835Y441482D01*
X1209518Y418165D01*
X1209465Y418091D01*
X1209405Y418022D01*
X1209393Y417992D01*
X1209374Y417966D01*
X1209347Y417879D01*
X1209313Y417794D01*
X1209309Y417753D01*
X1209302Y417731D01*
X1209303Y417698D01*
X1209295Y417627D01*
X1209295Y379842D01*
X1144158Y314705D01*
X1014842Y314705D01*
G37*
%LPD*%
%LPC*%
G36*
X1318627Y433577D02*
X1318627Y433577D01*
X1314613Y435240D01*
X1311540Y438313D01*
X1309877Y442327D01*
X1309877Y446673D01*
X1311540Y450687D01*
X1314613Y453760D01*
X1318627Y455423D01*
X1322973Y455423D01*
X1326987Y453760D01*
X1330060Y450687D01*
X1331270Y447765D01*
X1331332Y447665D01*
X1331392Y447565D01*
X1331397Y447561D01*
X1331400Y447556D01*
X1331490Y447481D01*
X1331579Y447405D01*
X1331585Y447403D01*
X1331589Y447399D01*
X1331698Y447357D01*
X1331807Y447313D01*
X1331815Y447312D01*
X1331819Y447311D01*
X1331837Y447310D01*
X1331974Y447295D01*
X1420927Y447295D01*
X1421017Y447309D01*
X1421108Y447317D01*
X1421138Y447329D01*
X1421170Y447334D01*
X1421250Y447377D01*
X1421334Y447413D01*
X1421366Y447439D01*
X1421387Y447450D01*
X1421409Y447473D01*
X1421465Y447518D01*
X1457482Y483535D01*
X1459342Y485395D01*
X1614058Y485395D01*
X1632375Y467077D01*
X1632452Y467022D01*
X1632516Y466967D01*
X1632538Y466958D01*
X1632564Y466939D01*
X1632570Y466937D01*
X1632575Y466934D01*
X1632679Y466902D01*
X1632744Y466875D01*
X1632768Y466873D01*
X1632798Y466863D01*
X1632804Y466863D01*
X1632810Y466861D01*
X1632860Y466863D01*
X1632911Y466857D01*
X1632920Y466857D01*
X1632967Y466865D01*
X1633044Y466865D01*
X1633051Y466868D01*
X1633056Y466868D01*
X1633073Y466874D01*
X1633137Y466892D01*
X1633163Y466897D01*
X1633177Y466904D01*
X1633205Y466912D01*
X1636127Y468123D01*
X1640473Y468123D01*
X1644487Y466460D01*
X1647560Y463387D01*
X1649223Y459373D01*
X1649223Y455027D01*
X1647560Y451013D01*
X1644487Y447940D01*
X1640473Y446277D01*
X1636127Y446277D01*
X1632113Y447940D01*
X1629040Y451013D01*
X1627377Y455027D01*
X1627377Y459373D01*
X1628588Y462295D01*
X1628614Y462409D01*
X1628643Y462522D01*
X1628643Y462529D01*
X1628644Y462535D01*
X1628633Y462651D01*
X1628624Y462768D01*
X1628622Y462773D01*
X1628621Y462780D01*
X1628573Y462887D01*
X1628528Y462994D01*
X1628523Y463000D01*
X1628521Y463004D01*
X1628508Y463018D01*
X1628423Y463125D01*
X1611965Y479582D01*
X1611891Y479635D01*
X1611822Y479695D01*
X1611792Y479707D01*
X1611766Y479726D01*
X1611679Y479753D01*
X1611594Y479787D01*
X1611553Y479791D01*
X1611531Y479798D01*
X1611498Y479797D01*
X1611427Y479805D01*
X1461973Y479805D01*
X1461883Y479791D01*
X1461792Y479783D01*
X1461762Y479771D01*
X1461730Y479766D01*
X1461649Y479723D01*
X1461566Y479687D01*
X1461533Y479661D01*
X1461513Y479650D01*
X1461506Y479644D01*
X1461506Y479643D01*
X1461489Y479626D01*
X1461435Y479582D01*
X1423558Y441705D01*
X1331974Y441705D01*
X1331859Y441686D01*
X1331743Y441669D01*
X1331737Y441667D01*
X1331731Y441666D01*
X1331628Y441611D01*
X1331524Y441558D01*
X1331519Y441553D01*
X1331514Y441550D01*
X1331434Y441466D01*
X1331351Y441382D01*
X1331348Y441376D01*
X1331344Y441372D01*
X1331336Y441355D01*
X1331270Y441235D01*
X1330060Y438313D01*
X1326987Y435240D01*
X1322973Y433577D01*
X1318627Y433577D01*
G37*
%LPD*%
%LPC*%
G36*
X1318627Y357377D02*
X1318627Y357377D01*
X1314613Y359040D01*
X1311540Y362113D01*
X1309877Y366127D01*
X1309877Y370473D01*
X1311540Y374487D01*
X1314613Y377560D01*
X1318627Y379223D01*
X1322973Y379223D01*
X1325895Y378012D01*
X1326009Y377986D01*
X1326122Y377957D01*
X1326129Y377957D01*
X1326135Y377956D01*
X1326251Y377967D01*
X1326368Y377976D01*
X1326373Y377978D01*
X1326380Y377979D01*
X1326487Y378027D01*
X1326594Y378072D01*
X1326600Y378077D01*
X1326604Y378079D01*
X1326618Y378092D01*
X1326725Y378177D01*
X1343182Y394635D01*
X1345042Y396495D01*
X1614058Y396495D01*
X1615918Y394635D01*
X1632375Y378177D01*
X1632470Y378109D01*
X1632564Y378039D01*
X1632570Y378037D01*
X1632575Y378034D01*
X1632686Y378000D01*
X1632798Y377963D01*
X1632804Y377963D01*
X1632810Y377961D01*
X1632927Y377964D01*
X1633044Y377965D01*
X1633051Y377968D01*
X1633056Y377968D01*
X1633073Y377974D01*
X1633205Y378012D01*
X1636127Y379223D01*
X1640473Y379223D01*
X1644487Y377560D01*
X1647560Y374487D01*
X1649223Y370473D01*
X1649223Y366127D01*
X1647560Y362113D01*
X1644487Y359040D01*
X1640473Y357377D01*
X1636127Y357377D01*
X1632113Y359040D01*
X1629040Y362113D01*
X1627377Y366127D01*
X1627377Y370473D01*
X1628588Y373395D01*
X1628614Y373509D01*
X1628643Y373622D01*
X1628643Y373629D01*
X1628644Y373635D01*
X1628633Y373751D01*
X1628624Y373868D01*
X1628622Y373873D01*
X1628621Y373880D01*
X1628573Y373987D01*
X1628528Y374094D01*
X1628523Y374100D01*
X1628521Y374104D01*
X1628508Y374118D01*
X1628423Y374225D01*
X1611965Y390682D01*
X1611891Y390735D01*
X1611822Y390795D01*
X1611792Y390807D01*
X1611766Y390826D01*
X1611679Y390853D01*
X1611594Y390887D01*
X1611553Y390891D01*
X1611531Y390898D01*
X1611498Y390897D01*
X1611427Y390905D01*
X1347673Y390905D01*
X1347583Y390891D01*
X1347492Y390883D01*
X1347462Y390871D01*
X1347430Y390866D01*
X1347350Y390823D01*
X1347266Y390787D01*
X1347234Y390761D01*
X1347213Y390750D01*
X1347191Y390727D01*
X1347135Y390682D01*
X1330677Y374225D01*
X1330609Y374130D01*
X1330539Y374036D01*
X1330537Y374030D01*
X1330534Y374025D01*
X1330500Y373914D01*
X1330463Y373802D01*
X1330463Y373796D01*
X1330461Y373790D01*
X1330464Y373673D01*
X1330465Y373556D01*
X1330468Y373549D01*
X1330468Y373544D01*
X1330474Y373527D01*
X1330512Y373395D01*
X1331723Y370473D01*
X1331723Y366127D01*
X1330060Y362113D01*
X1326987Y359040D01*
X1322973Y357377D01*
X1318627Y357377D01*
G37*
%LPD*%
%LPC*%
G36*
X1318627Y395477D02*
X1318627Y395477D01*
X1314613Y397140D01*
X1311540Y400213D01*
X1309877Y404227D01*
X1309877Y408573D01*
X1311540Y412587D01*
X1314613Y415660D01*
X1318627Y417323D01*
X1322973Y417323D01*
X1326987Y415660D01*
X1330060Y412587D01*
X1331270Y409665D01*
X1331332Y409565D01*
X1331392Y409465D01*
X1331397Y409461D01*
X1331400Y409456D01*
X1331490Y409381D01*
X1331579Y409305D01*
X1331585Y409303D01*
X1331590Y409299D01*
X1331698Y409257D01*
X1331807Y409213D01*
X1331815Y409212D01*
X1331819Y409211D01*
X1331837Y409210D01*
X1331974Y409195D01*
X1433627Y409195D01*
X1433717Y409209D01*
X1433808Y409217D01*
X1433838Y409229D01*
X1433870Y409234D01*
X1433950Y409277D01*
X1434034Y409313D01*
X1434066Y409339D01*
X1434087Y409350D01*
X1434109Y409373D01*
X1434165Y409418D01*
X1476023Y451275D01*
X1476091Y451370D01*
X1476161Y451464D01*
X1476163Y451470D01*
X1476166Y451475D01*
X1476200Y451586D01*
X1476237Y451698D01*
X1476237Y451704D01*
X1476239Y451710D01*
X1476236Y451827D01*
X1476235Y451944D01*
X1476232Y451951D01*
X1476232Y451956D01*
X1476226Y451973D01*
X1476188Y452105D01*
X1474977Y455027D01*
X1474977Y459373D01*
X1476640Y463387D01*
X1479713Y466460D01*
X1483727Y468123D01*
X1488073Y468123D01*
X1492087Y466460D01*
X1495160Y463387D01*
X1496823Y459373D01*
X1496823Y455027D01*
X1495160Y451013D01*
X1492087Y447940D01*
X1488073Y446277D01*
X1483727Y446277D01*
X1480805Y447488D01*
X1480691Y447514D01*
X1480578Y447543D01*
X1480571Y447543D01*
X1480565Y447544D01*
X1480449Y447533D01*
X1480332Y447524D01*
X1480327Y447522D01*
X1480320Y447521D01*
X1480213Y447473D01*
X1480106Y447428D01*
X1480100Y447423D01*
X1480096Y447421D01*
X1480082Y447408D01*
X1479975Y447323D01*
X1436258Y403605D01*
X1331974Y403605D01*
X1331859Y403586D01*
X1331743Y403569D01*
X1331737Y403567D01*
X1331731Y403566D01*
X1331628Y403511D01*
X1331524Y403458D01*
X1331519Y403453D01*
X1331514Y403450D01*
X1331434Y403366D01*
X1331351Y403282D01*
X1331348Y403276D01*
X1331344Y403272D01*
X1331336Y403255D01*
X1331270Y403135D01*
X1330060Y400213D01*
X1326987Y397140D01*
X1322973Y395477D01*
X1318627Y395477D01*
G37*
%LPD*%
%LPC*%
G36*
X1318627Y319277D02*
X1318627Y319277D01*
X1314613Y320940D01*
X1311540Y324013D01*
X1309877Y328027D01*
X1309877Y332373D01*
X1311540Y336387D01*
X1314613Y339460D01*
X1318627Y341123D01*
X1322973Y341123D01*
X1325895Y339912D01*
X1326009Y339886D01*
X1326122Y339857D01*
X1326129Y339857D01*
X1326135Y339856D01*
X1326251Y339867D01*
X1326368Y339876D01*
X1326373Y339878D01*
X1326380Y339879D01*
X1326487Y339927D01*
X1326594Y339972D01*
X1326600Y339977D01*
X1326604Y339979D01*
X1326618Y339992D01*
X1326725Y340077D01*
X1355882Y369235D01*
X1357742Y371095D01*
X1474726Y371095D01*
X1474841Y371114D01*
X1474957Y371131D01*
X1474963Y371133D01*
X1474969Y371134D01*
X1475072Y371189D01*
X1475176Y371242D01*
X1475181Y371247D01*
X1475186Y371250D01*
X1475266Y371334D01*
X1475349Y371418D01*
X1475352Y371424D01*
X1475356Y371428D01*
X1475364Y371445D01*
X1475430Y371565D01*
X1476640Y374487D01*
X1479713Y377560D01*
X1483727Y379223D01*
X1488073Y379223D01*
X1492087Y377560D01*
X1495160Y374487D01*
X1496823Y370473D01*
X1496823Y366127D01*
X1495160Y362113D01*
X1492087Y359040D01*
X1488073Y357377D01*
X1483727Y357377D01*
X1479713Y359040D01*
X1476640Y362113D01*
X1475430Y365035D01*
X1475368Y365135D01*
X1475308Y365235D01*
X1475303Y365239D01*
X1475300Y365244D01*
X1475210Y365319D01*
X1475121Y365395D01*
X1475115Y365397D01*
X1475111Y365401D01*
X1475002Y365443D01*
X1474893Y365487D01*
X1474885Y365488D01*
X1474881Y365489D01*
X1474863Y365490D01*
X1474726Y365505D01*
X1360373Y365505D01*
X1360283Y365491D01*
X1360192Y365483D01*
X1360162Y365471D01*
X1360130Y365466D01*
X1360050Y365423D01*
X1359966Y365387D01*
X1359934Y365361D01*
X1359913Y365350D01*
X1359891Y365327D01*
X1359835Y365282D01*
X1330677Y336125D01*
X1330609Y336030D01*
X1330539Y335936D01*
X1330537Y335930D01*
X1330534Y335925D01*
X1330500Y335814D01*
X1330463Y335702D01*
X1330463Y335696D01*
X1330461Y335690D01*
X1330464Y335573D01*
X1330465Y335456D01*
X1330468Y335449D01*
X1330468Y335444D01*
X1330474Y335427D01*
X1330512Y335295D01*
X1331723Y332373D01*
X1331723Y328027D01*
X1330060Y324013D01*
X1326987Y320940D01*
X1322973Y319277D01*
X1318627Y319277D01*
G37*
%LPD*%
%LPC*%
G36*
X1102929Y457493D02*
X1102929Y457493D01*
X1099288Y459001D01*
X1096501Y461788D01*
X1094993Y465429D01*
X1094993Y469371D01*
X1096501Y473012D01*
X1099288Y475799D01*
X1102929Y477307D01*
X1106871Y477307D01*
X1109218Y476335D01*
X1109331Y476308D01*
X1109445Y476279D01*
X1109451Y476280D01*
X1109457Y476278D01*
X1109574Y476289D01*
X1109690Y476298D01*
X1109696Y476301D01*
X1109702Y476301D01*
X1109810Y476349D01*
X1109916Y476395D01*
X1109922Y476399D01*
X1109927Y476401D01*
X1109940Y476414D01*
X1110047Y476500D01*
X1178082Y544535D01*
X1178135Y544609D01*
X1178195Y544678D01*
X1178207Y544708D01*
X1178226Y544734D01*
X1178253Y544821D01*
X1178287Y544906D01*
X1178291Y544947D01*
X1178298Y544969D01*
X1178297Y545002D01*
X1178305Y545073D01*
X1178305Y600626D01*
X1178286Y600740D01*
X1178269Y600857D01*
X1178267Y600862D01*
X1178266Y600868D01*
X1178211Y600971D01*
X1178158Y601076D01*
X1178153Y601080D01*
X1178150Y601086D01*
X1178066Y601166D01*
X1177982Y601248D01*
X1177976Y601252D01*
X1177972Y601255D01*
X1177955Y601263D01*
X1177835Y601329D01*
X1176064Y602063D01*
X1173563Y604564D01*
X1172209Y607832D01*
X1172209Y611368D01*
X1173563Y614636D01*
X1176064Y617137D01*
X1179332Y618491D01*
X1182868Y618491D01*
X1186136Y617137D01*
X1188637Y614636D01*
X1189991Y611368D01*
X1189991Y607832D01*
X1188637Y604564D01*
X1186136Y602063D01*
X1184365Y601329D01*
X1184265Y601267D01*
X1184165Y601207D01*
X1184161Y601203D01*
X1184156Y601199D01*
X1184081Y601110D01*
X1184005Y601021D01*
X1184003Y601015D01*
X1183999Y601010D01*
X1183957Y600902D01*
X1183913Y600792D01*
X1183912Y600785D01*
X1183911Y600780D01*
X1183910Y600762D01*
X1183895Y600626D01*
X1183895Y542442D01*
X1182035Y540582D01*
X1114000Y472547D01*
X1113932Y472453D01*
X1113862Y472359D01*
X1113860Y472353D01*
X1113856Y472347D01*
X1113822Y472237D01*
X1113785Y472125D01*
X1113786Y472118D01*
X1113784Y472112D01*
X1113787Y471996D01*
X1113788Y471879D01*
X1113790Y471872D01*
X1113790Y471867D01*
X1113796Y471849D01*
X1113835Y471718D01*
X1114807Y469371D01*
X1114807Y465429D01*
X1113299Y461788D01*
X1110512Y459001D01*
X1106871Y457493D01*
X1102929Y457493D01*
G37*
%LPD*%
%LPC*%
G36*
X1102929Y482893D02*
X1102929Y482893D01*
X1099288Y484401D01*
X1096501Y487188D01*
X1094993Y490829D01*
X1094993Y494771D01*
X1096501Y498412D01*
X1099288Y501199D01*
X1102929Y502707D01*
X1106871Y502707D01*
X1109218Y501735D01*
X1109331Y501708D01*
X1109445Y501679D01*
X1109451Y501680D01*
X1109457Y501678D01*
X1109574Y501689D01*
X1109690Y501698D01*
X1109696Y501701D01*
X1109702Y501701D01*
X1109810Y501749D01*
X1109916Y501795D01*
X1109922Y501799D01*
X1109927Y501801D01*
X1109940Y501814D01*
X1110047Y501900D01*
X1152682Y544535D01*
X1152735Y544609D01*
X1152795Y544678D01*
X1152807Y544708D01*
X1152826Y544734D01*
X1152853Y544821D01*
X1152887Y544906D01*
X1152891Y544947D01*
X1152898Y544969D01*
X1152897Y545002D01*
X1152905Y545073D01*
X1152905Y600626D01*
X1152886Y600740D01*
X1152869Y600857D01*
X1152867Y600862D01*
X1152866Y600868D01*
X1152811Y600971D01*
X1152758Y601076D01*
X1152753Y601080D01*
X1152750Y601086D01*
X1152666Y601166D01*
X1152582Y601248D01*
X1152576Y601252D01*
X1152572Y601255D01*
X1152555Y601263D01*
X1152435Y601329D01*
X1150664Y602063D01*
X1148163Y604564D01*
X1146809Y607832D01*
X1146809Y611368D01*
X1148163Y614636D01*
X1150664Y617137D01*
X1153932Y618491D01*
X1157468Y618491D01*
X1160736Y617137D01*
X1163237Y614636D01*
X1164591Y611368D01*
X1164591Y607832D01*
X1163237Y604564D01*
X1160736Y602063D01*
X1158965Y601329D01*
X1158865Y601267D01*
X1158765Y601207D01*
X1158761Y601203D01*
X1158756Y601199D01*
X1158681Y601110D01*
X1158605Y601021D01*
X1158603Y601015D01*
X1158599Y601010D01*
X1158557Y600902D01*
X1158513Y600792D01*
X1158512Y600785D01*
X1158511Y600780D01*
X1158510Y600762D01*
X1158495Y600626D01*
X1158495Y542442D01*
X1156635Y540582D01*
X1114000Y497947D01*
X1113932Y497853D01*
X1113862Y497759D01*
X1113860Y497753D01*
X1113856Y497747D01*
X1113822Y497637D01*
X1113785Y497525D01*
X1113786Y497518D01*
X1113784Y497512D01*
X1113787Y497396D01*
X1113788Y497279D01*
X1113790Y497272D01*
X1113790Y497267D01*
X1113796Y497249D01*
X1113835Y497118D01*
X1114807Y494771D01*
X1114807Y490829D01*
X1113299Y487188D01*
X1110512Y484401D01*
X1106871Y482893D01*
X1102929Y482893D01*
G37*
%LPD*%
%LPC*%
G36*
X1102929Y508293D02*
X1102929Y508293D01*
X1099288Y509801D01*
X1096501Y512588D01*
X1095529Y514935D01*
X1095468Y515035D01*
X1095408Y515135D01*
X1095403Y515139D01*
X1095400Y515144D01*
X1095310Y515219D01*
X1095221Y515295D01*
X1095215Y515297D01*
X1095210Y515301D01*
X1095102Y515343D01*
X1094993Y515387D01*
X1094985Y515388D01*
X1094981Y515389D01*
X1094962Y515390D01*
X1094826Y515405D01*
X1080842Y515405D01*
X1025905Y570342D01*
X1025905Y600626D01*
X1025886Y600740D01*
X1025869Y600857D01*
X1025867Y600862D01*
X1025866Y600868D01*
X1025811Y600971D01*
X1025758Y601076D01*
X1025753Y601080D01*
X1025750Y601086D01*
X1025666Y601166D01*
X1025582Y601248D01*
X1025576Y601252D01*
X1025572Y601255D01*
X1025555Y601263D01*
X1025435Y601329D01*
X1023664Y602063D01*
X1021163Y604564D01*
X1019809Y607832D01*
X1019809Y611368D01*
X1021163Y614636D01*
X1023664Y617137D01*
X1026932Y618491D01*
X1030468Y618491D01*
X1033736Y617137D01*
X1036237Y614636D01*
X1037591Y611368D01*
X1037591Y607832D01*
X1036237Y604564D01*
X1033736Y602063D01*
X1031965Y601329D01*
X1031865Y601267D01*
X1031765Y601207D01*
X1031761Y601203D01*
X1031756Y601199D01*
X1031681Y601110D01*
X1031605Y601021D01*
X1031603Y601015D01*
X1031599Y601010D01*
X1031557Y600902D01*
X1031513Y600792D01*
X1031512Y600785D01*
X1031511Y600780D01*
X1031510Y600762D01*
X1031495Y600626D01*
X1031495Y572973D01*
X1031509Y572883D01*
X1031517Y572792D01*
X1031529Y572762D01*
X1031534Y572730D01*
X1031577Y572650D01*
X1031613Y572566D01*
X1031639Y572534D01*
X1031650Y572513D01*
X1031673Y572491D01*
X1031718Y572435D01*
X1082935Y521218D01*
X1083009Y521165D01*
X1083078Y521105D01*
X1083108Y521093D01*
X1083134Y521074D01*
X1083221Y521047D01*
X1083306Y521013D01*
X1083347Y521009D01*
X1083369Y521002D01*
X1083402Y521003D01*
X1083473Y520995D01*
X1094826Y520995D01*
X1094941Y521014D01*
X1095057Y521031D01*
X1095063Y521033D01*
X1095069Y521034D01*
X1095171Y521089D01*
X1095276Y521142D01*
X1095281Y521147D01*
X1095286Y521150D01*
X1095366Y521234D01*
X1095448Y521318D01*
X1095452Y521324D01*
X1095455Y521328D01*
X1095463Y521345D01*
X1095529Y521465D01*
X1096501Y523812D01*
X1099288Y526599D01*
X1102929Y528107D01*
X1106871Y528107D01*
X1110512Y526599D01*
X1113299Y523812D01*
X1114807Y520171D01*
X1114807Y516229D01*
X1113299Y512588D01*
X1110512Y509801D01*
X1106871Y508293D01*
X1102929Y508293D01*
G37*
%LPD*%
%LPC*%
G36*
X1102929Y533693D02*
X1102929Y533693D01*
X1099288Y535201D01*
X1096501Y537988D01*
X1094993Y541629D01*
X1094993Y545571D01*
X1095965Y547918D01*
X1095992Y548031D01*
X1096021Y548145D01*
X1096020Y548151D01*
X1096022Y548157D01*
X1096011Y548274D01*
X1096002Y548390D01*
X1095999Y548396D01*
X1095999Y548402D01*
X1095951Y548509D01*
X1095905Y548616D01*
X1095901Y548622D01*
X1095899Y548627D01*
X1095886Y548640D01*
X1095800Y548747D01*
X1051305Y593242D01*
X1051305Y600626D01*
X1051286Y600740D01*
X1051269Y600857D01*
X1051267Y600862D01*
X1051266Y600868D01*
X1051211Y600971D01*
X1051158Y601076D01*
X1051153Y601080D01*
X1051150Y601086D01*
X1051066Y601166D01*
X1050982Y601248D01*
X1050976Y601252D01*
X1050972Y601255D01*
X1050955Y601263D01*
X1050835Y601329D01*
X1049064Y602063D01*
X1046563Y604564D01*
X1045209Y607832D01*
X1045209Y611368D01*
X1046563Y614636D01*
X1049064Y617137D01*
X1052332Y618491D01*
X1055868Y618491D01*
X1059136Y617137D01*
X1061637Y614636D01*
X1062991Y611368D01*
X1062991Y607832D01*
X1061637Y604564D01*
X1059136Y602063D01*
X1057365Y601329D01*
X1057265Y601267D01*
X1057165Y601207D01*
X1057161Y601203D01*
X1057156Y601199D01*
X1057081Y601110D01*
X1057005Y601021D01*
X1057003Y601015D01*
X1056999Y601010D01*
X1056957Y600902D01*
X1056913Y600792D01*
X1056912Y600785D01*
X1056911Y600780D01*
X1056910Y600762D01*
X1056895Y600626D01*
X1056895Y595873D01*
X1056909Y595783D01*
X1056917Y595692D01*
X1056929Y595662D01*
X1056934Y595630D01*
X1056977Y595550D01*
X1057013Y595466D01*
X1057039Y595434D01*
X1057050Y595413D01*
X1057073Y595391D01*
X1057118Y595335D01*
X1099753Y552700D01*
X1099848Y552631D01*
X1099941Y552562D01*
X1099948Y552560D01*
X1099953Y552556D01*
X1100063Y552522D01*
X1100175Y552485D01*
X1100182Y552486D01*
X1100188Y552484D01*
X1100304Y552487D01*
X1100421Y552488D01*
X1100428Y552490D01*
X1100434Y552490D01*
X1100451Y552496D01*
X1100582Y552535D01*
X1102929Y553507D01*
X1106871Y553507D01*
X1110512Y551999D01*
X1113299Y549212D01*
X1114807Y545571D01*
X1114807Y541629D01*
X1113299Y537988D01*
X1110512Y535201D01*
X1106871Y533693D01*
X1102929Y533693D01*
G37*
%LPD*%
%LPC*%
G36*
X1369427Y890777D02*
X1369427Y890777D01*
X1365413Y892440D01*
X1362340Y895513D01*
X1360677Y899527D01*
X1360677Y903873D01*
X1362340Y907887D01*
X1365413Y910960D01*
X1369427Y912623D01*
X1373773Y912623D01*
X1377787Y910960D01*
X1380860Y907887D01*
X1382523Y903873D01*
X1382523Y899527D01*
X1380860Y895513D01*
X1377787Y892440D01*
X1373773Y890777D01*
X1369427Y890777D01*
G37*
%LPD*%
%LPC*%
G36*
X1344027Y890777D02*
X1344027Y890777D01*
X1340013Y892440D01*
X1336940Y895513D01*
X1335277Y899527D01*
X1335277Y903873D01*
X1336940Y907887D01*
X1340013Y910960D01*
X1344027Y912623D01*
X1348373Y912623D01*
X1352387Y910960D01*
X1355460Y907887D01*
X1357123Y903873D01*
X1357123Y899527D01*
X1355460Y895513D01*
X1352387Y892440D01*
X1348373Y890777D01*
X1344027Y890777D01*
G37*
%LPD*%
%LPC*%
G36*
X1318627Y890777D02*
X1318627Y890777D01*
X1314613Y892440D01*
X1311540Y895513D01*
X1309877Y899527D01*
X1309877Y903873D01*
X1311540Y907887D01*
X1314613Y910960D01*
X1318627Y912623D01*
X1322973Y912623D01*
X1326987Y910960D01*
X1330060Y907887D01*
X1331723Y903873D01*
X1331723Y899527D01*
X1330060Y895513D01*
X1326987Y892440D01*
X1322973Y890777D01*
X1318627Y890777D01*
G37*
%LPD*%
%LPC*%
G36*
X1242427Y890777D02*
X1242427Y890777D01*
X1238413Y892440D01*
X1235340Y895513D01*
X1233677Y899527D01*
X1233677Y903873D01*
X1235340Y907887D01*
X1238413Y910960D01*
X1242427Y912623D01*
X1246773Y912623D01*
X1250787Y910960D01*
X1253860Y907887D01*
X1255523Y903873D01*
X1255523Y899527D01*
X1253860Y895513D01*
X1250787Y892440D01*
X1246773Y890777D01*
X1242427Y890777D01*
G37*
%LPD*%
%LPC*%
G36*
X1445627Y674877D02*
X1445627Y674877D01*
X1441613Y676540D01*
X1438540Y679613D01*
X1436877Y683627D01*
X1436877Y687973D01*
X1438540Y691987D01*
X1441613Y695060D01*
X1445627Y696723D01*
X1449973Y696723D01*
X1453987Y695060D01*
X1457060Y691987D01*
X1458723Y687973D01*
X1458723Y683627D01*
X1457060Y679613D01*
X1453987Y676540D01*
X1449973Y674877D01*
X1445627Y674877D01*
G37*
%LPD*%
%LPC*%
G36*
X1445627Y725677D02*
X1445627Y725677D01*
X1441613Y727340D01*
X1438540Y730413D01*
X1436877Y734427D01*
X1436877Y738773D01*
X1438540Y742787D01*
X1441613Y745860D01*
X1445627Y747523D01*
X1449973Y747523D01*
X1453987Y745860D01*
X1457060Y742787D01*
X1458723Y738773D01*
X1458723Y734427D01*
X1457060Y730413D01*
X1453987Y727340D01*
X1449973Y725677D01*
X1445627Y725677D01*
G37*
%LPD*%
%LPC*%
G36*
X1445627Y649477D02*
X1445627Y649477D01*
X1441613Y651140D01*
X1438540Y654213D01*
X1436877Y658227D01*
X1436877Y662573D01*
X1438540Y666587D01*
X1441613Y669660D01*
X1445627Y671323D01*
X1449973Y671323D01*
X1453987Y669660D01*
X1457060Y666587D01*
X1458723Y662573D01*
X1458723Y658227D01*
X1457060Y654213D01*
X1453987Y651140D01*
X1449973Y649477D01*
X1445627Y649477D01*
G37*
%LPD*%
%LPC*%
G36*
X1445627Y624077D02*
X1445627Y624077D01*
X1441613Y625740D01*
X1438540Y628813D01*
X1436877Y632827D01*
X1436877Y637173D01*
X1438540Y641187D01*
X1441613Y644260D01*
X1445627Y645923D01*
X1449973Y645923D01*
X1453987Y644260D01*
X1457060Y641187D01*
X1458723Y637173D01*
X1458723Y632827D01*
X1457060Y628813D01*
X1453987Y625740D01*
X1449973Y624077D01*
X1445627Y624077D01*
G37*
%LPD*%
%LPC*%
G36*
X1445627Y700277D02*
X1445627Y700277D01*
X1441613Y701940D01*
X1438540Y705013D01*
X1436877Y709027D01*
X1436877Y713373D01*
X1438540Y717387D01*
X1441613Y720460D01*
X1445627Y722123D01*
X1449973Y722123D01*
X1453987Y720460D01*
X1457060Y717387D01*
X1458723Y713373D01*
X1458723Y709027D01*
X1457060Y705013D01*
X1453987Y701940D01*
X1449973Y700277D01*
X1445627Y700277D01*
G37*
%LPD*%
%LPC*%
G36*
X1445627Y751077D02*
X1445627Y751077D01*
X1441613Y752740D01*
X1438540Y755813D01*
X1436877Y759827D01*
X1436877Y764173D01*
X1438540Y768187D01*
X1441613Y771260D01*
X1445627Y772923D01*
X1449973Y772923D01*
X1453987Y771260D01*
X1457060Y768187D01*
X1458723Y764173D01*
X1458723Y759827D01*
X1457060Y755813D01*
X1453987Y752740D01*
X1449973Y751077D01*
X1445627Y751077D01*
G37*
%LPD*%
%LPC*%
G36*
X848929Y381293D02*
X848929Y381293D01*
X845288Y382801D01*
X842501Y385588D01*
X840993Y389229D01*
X840993Y393171D01*
X842501Y396812D01*
X845288Y399599D01*
X848929Y401107D01*
X852871Y401107D01*
X856512Y399599D01*
X859299Y396812D01*
X860807Y393171D01*
X860807Y389229D01*
X859299Y385588D01*
X856512Y382801D01*
X852871Y381293D01*
X848929Y381293D01*
G37*
%LPD*%
%LPC*%
G36*
X1102929Y381293D02*
X1102929Y381293D01*
X1099288Y382801D01*
X1096501Y385588D01*
X1094993Y389229D01*
X1094993Y393171D01*
X1096501Y396812D01*
X1099288Y399599D01*
X1102929Y401107D01*
X1106871Y401107D01*
X1110512Y399599D01*
X1113299Y396812D01*
X1114807Y393171D01*
X1114807Y389229D01*
X1113299Y385588D01*
X1110512Y382801D01*
X1106871Y381293D01*
X1102929Y381293D01*
G37*
%LPD*%
%LPC*%
G36*
X848929Y406693D02*
X848929Y406693D01*
X845288Y408201D01*
X842501Y410988D01*
X840993Y414629D01*
X840993Y418571D01*
X842501Y422212D01*
X845288Y424999D01*
X848929Y426507D01*
X852871Y426507D01*
X856512Y424999D01*
X859299Y422212D01*
X860807Y418571D01*
X860807Y414629D01*
X859299Y410988D01*
X856512Y408201D01*
X852871Y406693D01*
X848929Y406693D01*
G37*
%LPD*%
%LPC*%
G36*
X1102929Y406693D02*
X1102929Y406693D01*
X1099288Y408201D01*
X1096501Y410988D01*
X1094993Y414629D01*
X1094993Y418571D01*
X1096501Y422212D01*
X1099288Y424999D01*
X1102929Y426507D01*
X1106871Y426507D01*
X1110512Y424999D01*
X1113299Y422212D01*
X1114807Y418571D01*
X1114807Y414629D01*
X1113299Y410988D01*
X1110512Y408201D01*
X1106871Y406693D01*
X1102929Y406693D01*
G37*
%LPD*%
%LPC*%
G36*
X848929Y432093D02*
X848929Y432093D01*
X845288Y433601D01*
X842501Y436388D01*
X840993Y440029D01*
X840993Y443971D01*
X842501Y447612D01*
X845288Y450399D01*
X848929Y451907D01*
X852871Y451907D01*
X856512Y450399D01*
X859299Y447612D01*
X860807Y443971D01*
X860807Y440029D01*
X859299Y436388D01*
X856512Y433601D01*
X852871Y432093D01*
X848929Y432093D01*
G37*
%LPD*%
%LPC*%
G36*
X1102929Y432093D02*
X1102929Y432093D01*
X1099288Y433601D01*
X1096501Y436388D01*
X1094993Y440029D01*
X1094993Y443971D01*
X1096501Y447612D01*
X1099288Y450399D01*
X1102929Y451907D01*
X1106871Y451907D01*
X1110512Y450399D01*
X1113299Y447612D01*
X1114807Y443971D01*
X1114807Y440029D01*
X1113299Y436388D01*
X1110512Y433601D01*
X1106871Y432093D01*
X1102929Y432093D01*
G37*
%LPD*%
%LPC*%
G36*
X848929Y355893D02*
X848929Y355893D01*
X845288Y357401D01*
X842501Y360188D01*
X840993Y363829D01*
X840993Y367771D01*
X842501Y371412D01*
X845288Y374199D01*
X848929Y375707D01*
X852871Y375707D01*
X856512Y374199D01*
X859299Y371412D01*
X860807Y367771D01*
X860807Y363829D01*
X859299Y360188D01*
X856512Y357401D01*
X852871Y355893D01*
X848929Y355893D01*
G37*
%LPD*%
%LPC*%
G36*
X848929Y330493D02*
X848929Y330493D01*
X845288Y332001D01*
X842501Y334788D01*
X840993Y338429D01*
X840993Y342371D01*
X842501Y346012D01*
X845288Y348799D01*
X848929Y350307D01*
X852871Y350307D01*
X856512Y348799D01*
X859299Y346012D01*
X860807Y342371D01*
X860807Y338429D01*
X859299Y334788D01*
X856512Y332001D01*
X852871Y330493D01*
X848929Y330493D01*
G37*
%LPD*%
%LPC*%
G36*
X925332Y753109D02*
X925332Y753109D01*
X922064Y754463D01*
X919563Y756964D01*
X918209Y760232D01*
X918209Y763768D01*
X919563Y767036D01*
X922064Y769537D01*
X925332Y770891D01*
X928868Y770891D01*
X932136Y769537D01*
X934637Y767036D01*
X935991Y763768D01*
X935991Y760232D01*
X934637Y756964D01*
X932136Y754463D01*
X928868Y753109D01*
X925332Y753109D01*
G37*
%LPD*%
%LPC*%
G36*
X1153932Y753109D02*
X1153932Y753109D01*
X1150664Y754463D01*
X1148163Y756964D01*
X1146809Y760232D01*
X1146809Y763768D01*
X1148163Y767036D01*
X1150664Y769537D01*
X1153932Y770891D01*
X1157468Y770891D01*
X1160736Y769537D01*
X1163237Y767036D01*
X1164591Y763768D01*
X1164591Y760232D01*
X1163237Y756964D01*
X1160736Y754463D01*
X1157468Y753109D01*
X1153932Y753109D01*
G37*
%LPD*%
%LPC*%
G36*
X1103132Y753109D02*
X1103132Y753109D01*
X1099864Y754463D01*
X1097363Y756964D01*
X1096009Y760232D01*
X1096009Y763768D01*
X1097363Y767036D01*
X1099864Y769537D01*
X1103132Y770891D01*
X1106668Y770891D01*
X1109936Y769537D01*
X1112437Y767036D01*
X1113791Y763768D01*
X1113791Y760232D01*
X1112437Y756964D01*
X1109936Y754463D01*
X1106668Y753109D01*
X1103132Y753109D01*
G37*
%LPD*%
%LPC*%
G36*
X950732Y753109D02*
X950732Y753109D01*
X947464Y754463D01*
X944963Y756964D01*
X943609Y760232D01*
X943609Y763768D01*
X944963Y767036D01*
X947464Y769537D01*
X950732Y770891D01*
X954268Y770891D01*
X957536Y769537D01*
X960037Y767036D01*
X961391Y763768D01*
X961391Y760232D01*
X960037Y756964D01*
X957536Y754463D01*
X954268Y753109D01*
X950732Y753109D01*
G37*
%LPD*%
%LPC*%
G36*
X1077732Y753109D02*
X1077732Y753109D01*
X1074464Y754463D01*
X1071963Y756964D01*
X1070609Y760232D01*
X1070609Y763768D01*
X1071963Y767036D01*
X1074464Y769537D01*
X1077732Y770891D01*
X1081268Y770891D01*
X1084536Y769537D01*
X1087037Y767036D01*
X1088391Y763768D01*
X1088391Y760232D01*
X1087037Y756964D01*
X1084536Y754463D01*
X1081268Y753109D01*
X1077732Y753109D01*
G37*
%LPD*%
%LPC*%
G36*
X1052332Y753109D02*
X1052332Y753109D01*
X1049064Y754463D01*
X1046563Y756964D01*
X1045209Y760232D01*
X1045209Y763768D01*
X1046563Y767036D01*
X1049064Y769537D01*
X1052332Y770891D01*
X1055868Y770891D01*
X1059136Y769537D01*
X1061637Y767036D01*
X1062991Y763768D01*
X1062991Y760232D01*
X1061637Y756964D01*
X1059136Y754463D01*
X1055868Y753109D01*
X1052332Y753109D01*
G37*
%LPD*%
%LPC*%
G36*
X1026932Y753109D02*
X1026932Y753109D01*
X1023664Y754463D01*
X1021163Y756964D01*
X1019809Y760232D01*
X1019809Y763768D01*
X1021163Y767036D01*
X1023664Y769537D01*
X1026932Y770891D01*
X1030468Y770891D01*
X1033736Y769537D01*
X1036237Y767036D01*
X1037591Y763768D01*
X1037591Y760232D01*
X1036237Y756964D01*
X1033736Y754463D01*
X1030468Y753109D01*
X1026932Y753109D01*
G37*
%LPD*%
%LPC*%
G36*
X1001532Y753109D02*
X1001532Y753109D01*
X998264Y754463D01*
X995763Y756964D01*
X994409Y760232D01*
X994409Y763768D01*
X995763Y767036D01*
X998264Y769537D01*
X1001532Y770891D01*
X1005068Y770891D01*
X1008336Y769537D01*
X1010837Y767036D01*
X1012191Y763768D01*
X1012191Y760232D01*
X1010837Y756964D01*
X1008336Y754463D01*
X1005068Y753109D01*
X1001532Y753109D01*
G37*
%LPD*%
%LPC*%
G36*
X976132Y727709D02*
X976132Y727709D01*
X972864Y729063D01*
X970363Y731564D01*
X969009Y734832D01*
X969009Y738368D01*
X970363Y741636D01*
X972864Y744137D01*
X976132Y745491D01*
X979668Y745491D01*
X982936Y744137D01*
X985437Y741636D01*
X986791Y738368D01*
X986791Y734832D01*
X985437Y731564D01*
X982936Y729063D01*
X979668Y727709D01*
X976132Y727709D01*
G37*
%LPD*%
%LPC*%
G36*
X1179332Y727709D02*
X1179332Y727709D01*
X1176064Y729063D01*
X1173563Y731564D01*
X1172209Y734832D01*
X1172209Y738368D01*
X1173563Y741636D01*
X1176064Y744137D01*
X1179332Y745491D01*
X1182868Y745491D01*
X1186136Y744137D01*
X1188637Y741636D01*
X1189991Y738368D01*
X1189991Y734832D01*
X1188637Y731564D01*
X1186136Y729063D01*
X1182868Y727709D01*
X1179332Y727709D01*
G37*
%LPD*%
%LPC*%
G36*
X950732Y727709D02*
X950732Y727709D01*
X947464Y729063D01*
X944963Y731564D01*
X943609Y734832D01*
X943609Y738368D01*
X944963Y741636D01*
X947464Y744137D01*
X950732Y745491D01*
X954268Y745491D01*
X957536Y744137D01*
X960037Y741636D01*
X961391Y738368D01*
X961391Y734832D01*
X960037Y731564D01*
X957536Y729063D01*
X954268Y727709D01*
X950732Y727709D01*
G37*
%LPD*%
%LPC*%
G36*
X925332Y727709D02*
X925332Y727709D01*
X922064Y729063D01*
X919563Y731564D01*
X918209Y734832D01*
X918209Y738368D01*
X919563Y741636D01*
X922064Y744137D01*
X925332Y745491D01*
X928868Y745491D01*
X932136Y744137D01*
X934637Y741636D01*
X935991Y738368D01*
X935991Y734832D01*
X934637Y731564D01*
X932136Y729063D01*
X928868Y727709D01*
X925332Y727709D01*
G37*
%LPD*%
%LPC*%
G36*
X874532Y727709D02*
X874532Y727709D01*
X871264Y729063D01*
X868763Y731564D01*
X867409Y734832D01*
X867409Y738368D01*
X868763Y741636D01*
X871264Y744137D01*
X874532Y745491D01*
X878068Y745491D01*
X881336Y744137D01*
X883837Y741636D01*
X885191Y738368D01*
X885191Y734832D01*
X883837Y731564D01*
X881336Y729063D01*
X878068Y727709D01*
X874532Y727709D01*
G37*
%LPD*%
%LPC*%
G36*
X1179332Y702309D02*
X1179332Y702309D01*
X1176064Y703663D01*
X1173563Y706164D01*
X1172209Y709432D01*
X1172209Y712968D01*
X1173563Y716236D01*
X1176064Y718737D01*
X1179332Y720091D01*
X1182868Y720091D01*
X1186136Y718737D01*
X1188637Y716236D01*
X1189991Y712968D01*
X1189991Y709432D01*
X1188637Y706164D01*
X1186136Y703663D01*
X1182868Y702309D01*
X1179332Y702309D01*
G37*
%LPD*%
%LPC*%
G36*
X1179332Y626109D02*
X1179332Y626109D01*
X1176064Y627463D01*
X1173563Y629964D01*
X1172209Y633232D01*
X1172209Y636768D01*
X1173563Y640036D01*
X1176064Y642537D01*
X1179332Y643891D01*
X1182868Y643891D01*
X1186136Y642537D01*
X1188637Y640036D01*
X1189991Y636768D01*
X1189991Y633232D01*
X1188637Y629964D01*
X1186136Y627463D01*
X1182868Y626109D01*
X1179332Y626109D01*
G37*
%LPD*%
%LPC*%
G36*
X1103132Y600709D02*
X1103132Y600709D01*
X1099864Y602063D01*
X1097363Y604564D01*
X1096009Y607832D01*
X1096009Y611368D01*
X1097363Y614636D01*
X1099864Y617137D01*
X1103132Y618491D01*
X1106668Y618491D01*
X1109936Y617137D01*
X1112437Y614636D01*
X1113791Y611368D01*
X1113791Y607832D01*
X1112437Y604564D01*
X1109936Y602063D01*
X1106668Y600709D01*
X1103132Y600709D01*
G37*
%LPD*%
%LPC*%
G36*
X1077732Y600709D02*
X1077732Y600709D01*
X1074464Y602063D01*
X1071963Y604564D01*
X1070609Y607832D01*
X1070609Y611368D01*
X1071963Y614636D01*
X1074464Y617137D01*
X1077732Y618491D01*
X1081268Y618491D01*
X1084536Y617137D01*
X1087037Y614636D01*
X1088391Y611368D01*
X1088391Y607832D01*
X1087037Y604564D01*
X1084536Y602063D01*
X1081268Y600709D01*
X1077732Y600709D01*
G37*
%LPD*%
%LPC*%
G36*
X1128532Y753109D02*
X1128532Y753109D01*
X1125264Y754463D01*
X1122763Y756964D01*
X1121409Y760232D01*
X1121409Y763768D01*
X1122763Y767036D01*
X1125264Y769537D01*
X1128532Y770891D01*
X1132068Y770891D01*
X1135336Y769537D01*
X1137837Y767036D01*
X1139191Y763768D01*
X1139191Y760232D01*
X1137837Y756964D01*
X1135336Y754463D01*
X1132068Y753109D01*
X1128532Y753109D01*
G37*
%LPD*%
%LPC*%
G36*
X899932Y600709D02*
X899932Y600709D01*
X896664Y602063D01*
X894163Y604564D01*
X892809Y607832D01*
X892809Y611368D01*
X894163Y614636D01*
X896664Y617137D01*
X899932Y618491D01*
X903468Y618491D01*
X906736Y617137D01*
X909237Y614636D01*
X910591Y611368D01*
X910591Y607832D01*
X909237Y604564D01*
X906736Y602063D01*
X903468Y600709D01*
X899932Y600709D01*
G37*
%LPD*%
%LPC*%
G36*
X874532Y600709D02*
X874532Y600709D01*
X871264Y602063D01*
X868763Y604564D01*
X867409Y607832D01*
X867409Y611368D01*
X868763Y614636D01*
X871264Y617137D01*
X874532Y618491D01*
X878068Y618491D01*
X881336Y617137D01*
X883837Y614636D01*
X885191Y611368D01*
X885191Y607832D01*
X883837Y604564D01*
X881336Y602063D01*
X878068Y600709D01*
X874532Y600709D01*
G37*
%LPD*%
%LPC*%
G36*
X1128532Y600709D02*
X1128532Y600709D01*
X1125264Y602063D01*
X1122763Y604564D01*
X1121409Y607832D01*
X1121409Y611368D01*
X1122763Y614636D01*
X1125264Y617137D01*
X1128532Y618491D01*
X1132068Y618491D01*
X1135336Y617137D01*
X1137837Y614636D01*
X1139191Y611368D01*
X1139191Y607832D01*
X1137837Y604564D01*
X1135336Y602063D01*
X1132068Y600709D01*
X1128532Y600709D01*
G37*
%LPD*%
%LPC*%
G36*
X976132Y753109D02*
X976132Y753109D01*
X972864Y754463D01*
X970363Y756964D01*
X969009Y760232D01*
X969009Y763768D01*
X970363Y767036D01*
X972864Y769537D01*
X976132Y770891D01*
X979668Y770891D01*
X982936Y769537D01*
X985437Y767036D01*
X986791Y763768D01*
X986791Y760232D01*
X985437Y756964D01*
X982936Y754463D01*
X979668Y753109D01*
X976132Y753109D01*
G37*
%LPD*%
%LPC*%
G36*
X874532Y753109D02*
X874532Y753109D01*
X871264Y754463D01*
X868763Y756964D01*
X867409Y760232D01*
X867409Y763768D01*
X868763Y767036D01*
X871264Y769537D01*
X874532Y770891D01*
X878068Y770891D01*
X881336Y769537D01*
X883837Y767036D01*
X885191Y763768D01*
X885191Y760232D01*
X883837Y756964D01*
X881336Y754463D01*
X878068Y753109D01*
X874532Y753109D01*
G37*
%LPD*%
%LPC*%
G36*
X1179332Y753109D02*
X1179332Y753109D01*
X1176064Y754463D01*
X1173563Y756964D01*
X1172209Y760232D01*
X1172209Y763768D01*
X1173563Y767036D01*
X1176064Y769537D01*
X1179332Y770891D01*
X1182868Y770891D01*
X1186136Y769537D01*
X1188637Y767036D01*
X1189991Y763768D01*
X1189991Y760232D01*
X1188637Y756964D01*
X1186136Y754463D01*
X1182868Y753109D01*
X1179332Y753109D01*
G37*
%LPD*%
%LPC*%
G36*
X849132Y753109D02*
X849132Y753109D01*
X845864Y754463D01*
X843363Y756964D01*
X842009Y760232D01*
X842009Y763768D01*
X843363Y767036D01*
X845864Y769537D01*
X849132Y770891D01*
X852668Y770891D01*
X855936Y769537D01*
X858437Y767036D01*
X859791Y763768D01*
X859791Y760232D01*
X858437Y756964D01*
X855936Y754463D01*
X852668Y753109D01*
X849132Y753109D01*
G37*
%LPD*%
%LPC*%
G36*
X1639823Y433323D02*
X1639823Y433323D01*
X1639823Y443646D01*
X1641096Y443445D01*
X1642883Y442864D01*
X1644557Y442011D01*
X1646078Y440906D01*
X1647406Y439578D01*
X1648511Y438057D01*
X1649364Y436383D01*
X1649945Y434596D01*
X1650146Y433323D01*
X1639823Y433323D01*
G37*
%LPD*%
%LPC*%
G36*
X1639823Y344423D02*
X1639823Y344423D01*
X1639823Y354746D01*
X1641096Y354545D01*
X1642883Y353964D01*
X1644557Y353111D01*
X1646078Y352006D01*
X1647406Y350678D01*
X1648511Y349157D01*
X1649364Y347483D01*
X1649945Y345696D01*
X1650146Y344423D01*
X1639823Y344423D01*
G37*
%LPD*%
%LPC*%
G36*
X1487423Y344423D02*
X1487423Y344423D01*
X1487423Y354746D01*
X1488696Y354545D01*
X1490483Y353964D01*
X1492157Y353111D01*
X1493678Y352006D01*
X1495006Y350678D01*
X1496111Y349157D01*
X1496964Y347483D01*
X1497545Y345696D01*
X1497746Y344423D01*
X1487423Y344423D01*
G37*
%LPD*%
%LPC*%
G36*
X1487423Y433323D02*
X1487423Y433323D01*
X1487423Y443646D01*
X1488696Y443445D01*
X1490483Y442864D01*
X1492157Y442011D01*
X1493678Y440906D01*
X1495006Y439578D01*
X1496111Y438057D01*
X1496964Y436383D01*
X1497545Y434596D01*
X1497746Y433323D01*
X1487423Y433323D01*
G37*
%LPD*%
%LPC*%
G36*
X1296923Y903223D02*
X1296923Y903223D01*
X1296923Y913546D01*
X1298196Y913345D01*
X1299983Y912764D01*
X1301657Y911911D01*
X1303178Y910806D01*
X1304506Y909478D01*
X1305611Y907957D01*
X1306464Y906283D01*
X1307045Y904496D01*
X1307246Y903223D01*
X1296923Y903223D01*
G37*
%LPD*%
%LPC*%
G36*
X1449323Y814323D02*
X1449323Y814323D01*
X1449323Y824646D01*
X1450596Y824445D01*
X1452383Y823864D01*
X1454057Y823011D01*
X1455578Y821906D01*
X1456906Y820578D01*
X1458011Y819057D01*
X1458864Y817383D01*
X1459445Y815596D01*
X1459646Y814323D01*
X1449323Y814323D01*
G37*
%LPD*%
%LPC*%
G36*
X1474054Y344423D02*
X1474054Y344423D01*
X1474255Y345696D01*
X1474836Y347483D01*
X1475689Y349157D01*
X1476794Y350678D01*
X1478122Y352006D01*
X1479643Y353111D01*
X1481317Y353964D01*
X1483104Y354545D01*
X1484377Y354746D01*
X1484377Y344423D01*
X1474054Y344423D01*
G37*
%LPD*%
%LPC*%
G36*
X1626454Y344423D02*
X1626454Y344423D01*
X1626655Y345696D01*
X1627236Y347483D01*
X1628089Y349157D01*
X1629194Y350678D01*
X1630522Y352006D01*
X1632043Y353111D01*
X1633717Y353964D01*
X1635504Y354545D01*
X1636777Y354746D01*
X1636777Y344423D01*
X1626454Y344423D01*
G37*
%LPD*%
%LPC*%
G36*
X1639823Y341377D02*
X1639823Y341377D01*
X1650146Y341377D01*
X1649945Y340104D01*
X1649364Y338317D01*
X1648511Y336643D01*
X1647406Y335122D01*
X1646078Y333794D01*
X1644557Y332689D01*
X1642883Y331836D01*
X1641096Y331255D01*
X1639823Y331054D01*
X1639823Y341377D01*
G37*
%LPD*%
%LPC*%
G36*
X1435954Y814323D02*
X1435954Y814323D01*
X1436155Y815596D01*
X1436736Y817383D01*
X1437589Y819057D01*
X1438694Y820578D01*
X1440022Y821906D01*
X1441543Y823011D01*
X1443217Y823864D01*
X1445004Y824445D01*
X1446277Y824646D01*
X1446277Y814323D01*
X1435954Y814323D01*
G37*
%LPD*%
%LPC*%
G36*
X1449323Y811277D02*
X1449323Y811277D01*
X1459646Y811277D01*
X1459445Y810004D01*
X1458864Y808217D01*
X1458011Y806543D01*
X1456906Y805022D01*
X1455578Y803694D01*
X1454057Y802589D01*
X1452383Y801736D01*
X1450596Y801155D01*
X1449323Y800954D01*
X1449323Y811277D01*
G37*
%LPD*%
%LPC*%
G36*
X1626454Y433323D02*
X1626454Y433323D01*
X1626655Y434596D01*
X1627236Y436383D01*
X1628089Y438057D01*
X1629194Y439578D01*
X1630522Y440906D01*
X1632043Y442011D01*
X1633717Y442864D01*
X1635504Y443445D01*
X1636777Y443646D01*
X1636777Y433323D01*
X1626454Y433323D01*
G37*
%LPD*%
%LPC*%
G36*
X1474054Y433323D02*
X1474054Y433323D01*
X1474255Y434596D01*
X1474836Y436383D01*
X1475689Y438057D01*
X1476794Y439578D01*
X1478122Y440906D01*
X1479643Y442011D01*
X1481317Y442864D01*
X1483104Y443445D01*
X1484377Y443646D01*
X1484377Y433323D01*
X1474054Y433323D01*
G37*
%LPD*%
%LPC*%
G36*
X1283554Y903223D02*
X1283554Y903223D01*
X1283755Y904496D01*
X1284336Y906283D01*
X1285189Y907957D01*
X1286294Y909478D01*
X1287622Y910806D01*
X1289143Y911911D01*
X1290817Y912764D01*
X1292604Y913345D01*
X1293877Y913546D01*
X1293877Y903223D01*
X1283554Y903223D01*
G37*
%LPD*%
%LPC*%
G36*
X1487423Y430277D02*
X1487423Y430277D01*
X1497746Y430277D01*
X1497545Y429004D01*
X1496964Y427217D01*
X1496111Y425543D01*
X1495006Y424022D01*
X1493678Y422694D01*
X1492157Y421589D01*
X1490483Y420736D01*
X1488696Y420155D01*
X1487423Y419954D01*
X1487423Y430277D01*
G37*
%LPD*%
%LPC*%
G36*
X1639823Y430277D02*
X1639823Y430277D01*
X1650146Y430277D01*
X1649945Y429004D01*
X1649364Y427217D01*
X1648511Y425543D01*
X1647406Y424022D01*
X1646078Y422694D01*
X1644557Y421589D01*
X1642883Y420736D01*
X1641096Y420155D01*
X1639823Y419954D01*
X1639823Y430277D01*
G37*
%LPD*%
%LPC*%
G36*
X1296923Y900177D02*
X1296923Y900177D01*
X1307246Y900177D01*
X1307045Y898904D01*
X1306464Y897117D01*
X1305611Y895443D01*
X1304506Y893922D01*
X1303178Y892594D01*
X1301657Y891489D01*
X1299983Y890636D01*
X1298196Y890055D01*
X1296923Y889854D01*
X1296923Y900177D01*
G37*
%LPD*%
%LPC*%
G36*
X1487423Y341377D02*
X1487423Y341377D01*
X1497746Y341377D01*
X1497545Y340104D01*
X1496964Y338317D01*
X1496111Y336643D01*
X1495006Y335122D01*
X1493678Y333794D01*
X1492157Y332689D01*
X1490483Y331836D01*
X1488696Y331255D01*
X1487423Y331054D01*
X1487423Y341377D01*
G37*
%LPD*%
%LPC*%
G36*
X1445004Y801155D02*
X1445004Y801155D01*
X1443217Y801736D01*
X1441543Y802589D01*
X1440022Y803694D01*
X1438694Y805022D01*
X1437589Y806543D01*
X1436736Y808217D01*
X1436155Y810004D01*
X1435954Y811277D01*
X1446277Y811277D01*
X1446277Y800954D01*
X1445004Y801155D01*
G37*
%LPD*%
%LPC*%
G36*
X1635504Y420155D02*
X1635504Y420155D01*
X1633717Y420736D01*
X1632043Y421589D01*
X1630522Y422694D01*
X1629194Y424022D01*
X1628089Y425543D01*
X1627236Y427217D01*
X1626655Y429004D01*
X1626454Y430277D01*
X1636777Y430277D01*
X1636777Y419954D01*
X1635504Y420155D01*
G37*
%LPD*%
%LPC*%
G36*
X1483104Y420155D02*
X1483104Y420155D01*
X1481317Y420736D01*
X1479643Y421589D01*
X1478122Y422694D01*
X1476794Y424022D01*
X1475689Y425543D01*
X1474836Y427217D01*
X1474255Y429004D01*
X1474054Y430277D01*
X1484377Y430277D01*
X1484377Y419954D01*
X1483104Y420155D01*
G37*
%LPD*%
%LPC*%
G36*
X1292604Y890055D02*
X1292604Y890055D01*
X1290817Y890636D01*
X1289143Y891489D01*
X1287622Y892594D01*
X1286294Y893922D01*
X1285189Y895443D01*
X1284336Y897117D01*
X1283755Y898904D01*
X1283554Y900177D01*
X1293877Y900177D01*
X1293877Y889854D01*
X1292604Y890055D01*
G37*
%LPD*%
%LPC*%
G36*
X1635504Y331255D02*
X1635504Y331255D01*
X1633717Y331836D01*
X1632043Y332689D01*
X1630522Y333794D01*
X1629194Y335122D01*
X1628089Y336643D01*
X1627236Y338317D01*
X1626655Y340104D01*
X1626454Y341377D01*
X1636777Y341377D01*
X1636777Y331054D01*
X1635504Y331255D01*
G37*
%LPD*%
%LPC*%
G36*
X1483104Y331255D02*
X1483104Y331255D01*
X1481317Y331836D01*
X1479643Y332689D01*
X1478122Y333794D01*
X1476794Y335122D01*
X1475689Y336643D01*
X1474836Y338317D01*
X1474255Y340104D01*
X1474054Y341377D01*
X1484377Y341377D01*
X1484377Y331054D01*
X1483104Y331255D01*
G37*
%LPD*%
%LPC*%
G36*
X1106423Y367323D02*
X1106423Y367323D01*
X1106423Y376618D01*
X1107458Y376454D01*
X1109093Y375922D01*
X1110625Y375142D01*
X1112016Y374131D01*
X1113231Y372916D01*
X1114242Y371525D01*
X1115022Y369993D01*
X1115554Y368358D01*
X1115718Y367323D01*
X1106423Y367323D01*
G37*
%LPD*%
%LPC*%
G36*
X1094082Y367323D02*
X1094082Y367323D01*
X1094246Y368358D01*
X1094778Y369993D01*
X1095558Y371525D01*
X1096569Y372916D01*
X1097784Y374131D01*
X1099175Y375142D01*
X1100707Y375922D01*
X1102342Y376454D01*
X1103377Y376618D01*
X1103377Y367323D01*
X1094082Y367323D01*
G37*
%LPD*%
%LPC*%
G36*
X1106423Y364277D02*
X1106423Y364277D01*
X1115718Y364277D01*
X1115554Y363242D01*
X1115022Y361607D01*
X1114242Y360075D01*
X1113231Y358684D01*
X1112016Y357469D01*
X1110625Y356458D01*
X1109093Y355678D01*
X1107458Y355146D01*
X1106423Y354982D01*
X1106423Y364277D01*
G37*
%LPD*%
%LPC*%
G36*
X1102342Y355146D02*
X1102342Y355146D01*
X1100707Y355678D01*
X1099175Y356458D01*
X1097784Y357469D01*
X1096569Y358684D01*
X1095558Y360075D01*
X1094778Y361607D01*
X1094246Y363242D01*
X1094082Y364277D01*
X1103377Y364277D01*
X1103377Y354982D01*
X1102342Y355146D01*
G37*
%LPD*%
%LPC*%
G36*
X1182623Y687323D02*
X1182623Y687323D01*
X1182623Y695589D01*
X1183420Y695463D01*
X1184903Y694981D01*
X1186292Y694273D01*
X1187554Y693356D01*
X1188656Y692254D01*
X1189573Y690992D01*
X1190281Y689603D01*
X1190763Y688120D01*
X1190889Y687323D01*
X1182623Y687323D01*
G37*
%LPD*%
%LPC*%
G36*
X852423Y611123D02*
X852423Y611123D01*
X852423Y619389D01*
X853220Y619263D01*
X854703Y618781D01*
X856092Y618073D01*
X857354Y617156D01*
X858456Y616054D01*
X859373Y614792D01*
X860081Y613403D01*
X860563Y611920D01*
X860689Y611123D01*
X852423Y611123D01*
G37*
%LPD*%
%LPC*%
G36*
X841111Y611123D02*
X841111Y611123D01*
X841237Y611920D01*
X841719Y613403D01*
X842427Y614792D01*
X843344Y616054D01*
X844446Y617156D01*
X845708Y618073D01*
X847097Y618781D01*
X848580Y619263D01*
X849377Y619389D01*
X849377Y611123D01*
X841111Y611123D01*
G37*
%LPD*%
%LPC*%
G36*
X1171311Y687323D02*
X1171311Y687323D01*
X1171437Y688120D01*
X1171919Y689603D01*
X1172627Y690992D01*
X1173544Y692254D01*
X1174646Y693356D01*
X1175908Y694273D01*
X1177297Y694981D01*
X1178780Y695463D01*
X1179577Y695589D01*
X1179577Y687323D01*
X1171311Y687323D01*
G37*
%LPD*%
%LPC*%
G36*
X1182623Y684277D02*
X1182623Y684277D01*
X1190889Y684277D01*
X1190763Y683480D01*
X1190281Y681997D01*
X1189573Y680608D01*
X1188656Y679346D01*
X1187554Y678244D01*
X1186292Y677327D01*
X1184903Y676619D01*
X1183420Y676137D01*
X1182623Y676011D01*
X1182623Y684277D01*
G37*
%LPD*%
%LPC*%
G36*
X852423Y608077D02*
X852423Y608077D01*
X860689Y608077D01*
X860563Y607280D01*
X860081Y605797D01*
X859373Y604408D01*
X858456Y603146D01*
X857354Y602044D01*
X856092Y601127D01*
X854703Y600419D01*
X853220Y599937D01*
X852423Y599811D01*
X852423Y608077D01*
G37*
%LPD*%
%LPC*%
G36*
X1178780Y676137D02*
X1178780Y676137D01*
X1177297Y676619D01*
X1175908Y677327D01*
X1174646Y678244D01*
X1173544Y679346D01*
X1172627Y680608D01*
X1171919Y681997D01*
X1171437Y683480D01*
X1171311Y684277D01*
X1179577Y684277D01*
X1179577Y676011D01*
X1178780Y676137D01*
G37*
%LPD*%
%LPC*%
G36*
X848580Y599937D02*
X848580Y599937D01*
X847097Y600419D01*
X845708Y601127D01*
X844446Y602044D01*
X843344Y603146D01*
X842427Y604408D01*
X841719Y605797D01*
X841237Y607280D01*
X841111Y608077D01*
X849377Y608077D01*
X849377Y599811D01*
X848580Y599937D01*
G37*
%LPD*%
%LPC*%
G36*
X1295399Y901699D02*
X1295399Y901699D01*
X1295399Y901701D01*
X1295401Y901701D01*
X1295401Y901699D01*
X1295399Y901699D01*
G37*
%LPD*%
%LPC*%
G36*
X1104899Y365799D02*
X1104899Y365799D01*
X1104899Y365801D01*
X1104901Y365801D01*
X1104901Y365799D01*
X1104899Y365799D01*
G37*
%LPD*%
%LPC*%
G36*
X1447799Y812799D02*
X1447799Y812799D01*
X1447799Y812801D01*
X1447801Y812801D01*
X1447801Y812799D01*
X1447799Y812799D01*
G37*
%LPD*%
%LPC*%
G36*
X850899Y609599D02*
X850899Y609599D01*
X850899Y609601D01*
X850901Y609601D01*
X850901Y609599D01*
X850899Y609599D01*
G37*
%LPD*%
%LPC*%
G36*
X1181099Y685799D02*
X1181099Y685799D01*
X1181099Y685801D01*
X1181101Y685801D01*
X1181101Y685799D01*
X1181099Y685799D01*
G37*
%LPD*%
%LPC*%
G36*
X1638299Y342899D02*
X1638299Y342899D01*
X1638299Y342901D01*
X1638301Y342901D01*
X1638301Y342899D01*
X1638299Y342899D01*
G37*
%LPD*%
%LPC*%
G36*
X1485899Y342899D02*
X1485899Y342899D01*
X1485899Y342901D01*
X1485901Y342901D01*
X1485901Y342899D01*
X1485899Y342899D01*
G37*
%LPD*%
%LPC*%
G36*
X1638299Y431799D02*
X1638299Y431799D01*
X1638299Y431801D01*
X1638301Y431801D01*
X1638301Y431799D01*
X1638299Y431799D01*
G37*
%LPD*%
%LPC*%
G36*
X1485899Y431799D02*
X1485899Y431799D01*
X1485899Y431801D01*
X1485901Y431801D01*
X1485901Y431799D01*
X1485899Y431799D01*
G37*
%LPD*%
D10*
X1485900Y368300D03*
X1485900Y342900D03*
X1638300Y368300D03*
X1638300Y342900D03*
X1485900Y457200D03*
X1485900Y431800D03*
X1244600Y901700D03*
X1270000Y901700D03*
X1295400Y901700D03*
X1320800Y901700D03*
X1346200Y901700D03*
X1371600Y901700D03*
X1320800Y406400D03*
X1244600Y406400D03*
X1320800Y368300D03*
X1244600Y368300D03*
X1320800Y330200D03*
X1244600Y330200D03*
D11*
X1104900Y340400D03*
X1104900Y365800D03*
X1104900Y391200D03*
X1104900Y416600D03*
X1104900Y442000D03*
X1104900Y467400D03*
X1104900Y492800D03*
X1104900Y518200D03*
X1104900Y543600D03*
X850900Y340400D03*
X850900Y365800D03*
X850900Y391200D03*
X850900Y416600D03*
X850900Y442000D03*
D10*
X1320800Y444500D03*
X1244600Y444500D03*
X1638300Y457200D03*
X1638300Y431800D03*
D12*
X850900Y609600D03*
X876300Y609600D03*
X901700Y609600D03*
X927100Y609600D03*
X952500Y609600D03*
X977900Y609600D03*
X1003300Y609600D03*
X1028700Y609600D03*
X1054100Y609600D03*
X1079500Y609600D03*
X1104900Y609600D03*
X1130300Y609600D03*
X1155700Y609600D03*
X1181100Y609600D03*
X1181100Y635000D03*
X1181100Y660400D03*
X1181100Y685800D03*
X1181100Y711200D03*
X1181100Y736600D03*
X1181100Y762000D03*
X1155700Y762000D03*
X1130300Y762000D03*
X1104900Y762000D03*
X1079500Y762000D03*
X1054100Y762000D03*
X1028700Y762000D03*
X1003300Y762000D03*
X977900Y762000D03*
X952500Y762000D03*
X927100Y762000D03*
X901700Y762000D03*
X876300Y762000D03*
X850900Y762000D03*
X876300Y736600D03*
X927100Y736600D03*
X952500Y736600D03*
X977900Y736600D03*
D10*
X1447800Y635000D03*
X1447800Y660400D03*
X1447800Y685800D03*
X1447800Y711200D03*
X1447800Y736600D03*
X1447800Y762000D03*
X1447800Y787400D03*
X1447800Y812800D03*
D13*
X1270000Y901700D02*
X1206500Y838200D01*
X977900Y838200D02*
X901700Y762000D01*
X977900Y838200D02*
X1193800Y838200D01*
X1206500Y838200D01*
X1206500Y635000D02*
X1219200Y635000D01*
X1206500Y635000D02*
X1181100Y660400D01*
X1206500Y685800D01*
X1206500Y825500D01*
X1193800Y838200D01*
X1219200Y454700D02*
X1104900Y340400D01*
X1219200Y454700D02*
X1219200Y635000D01*
X1384300Y787400D02*
X1270000Y901700D01*
X1384300Y787400D02*
X1447800Y787400D01*
X1435100Y406400D02*
X1320800Y406400D01*
X1435100Y406400D02*
X1485900Y457200D01*
X1346200Y393700D02*
X1320800Y368300D01*
X1612900Y393700D02*
X1638300Y368300D01*
X1612900Y393700D02*
X1346200Y393700D01*
X1358900Y368300D02*
X1320800Y330200D01*
X1358900Y368300D02*
X1485900Y368300D01*
X1181100Y543600D02*
X1104900Y467400D01*
X1181100Y543600D02*
X1181100Y609600D01*
X1155700Y543600D02*
X1104900Y492800D01*
X1155700Y543600D02*
X1155700Y609600D01*
X1104900Y518200D02*
X1082000Y518200D01*
X1028700Y571500D01*
X1028700Y609600D01*
X1054100Y594400D02*
X1104900Y543600D01*
X1054100Y594400D02*
X1054100Y609600D01*
X927100Y609600D02*
X927100Y355600D01*
X927100Y304800D01*
X952500Y279400D02*
X1193800Y279400D01*
X1244600Y330200D01*
X952500Y279400D02*
X927100Y304800D01*
X952500Y304800D02*
X952500Y609600D01*
X952500Y304800D02*
X965200Y292100D01*
X1181100Y292100D01*
X1244600Y355600D01*
X1244600Y368300D01*
X977900Y317500D02*
X977900Y609600D01*
X977900Y317500D02*
X990600Y304800D01*
X1168400Y304800D01*
X1219200Y355600D01*
X1219200Y381000D01*
X1244600Y406400D01*
X1320800Y444500D02*
X1422400Y444500D01*
X1460500Y482600D01*
X1612900Y482600D01*
X1638300Y457200D01*
X1003300Y330200D02*
X1003300Y609600D01*
X1003300Y330200D02*
X1016000Y317500D01*
X1143000Y317500D01*
X1206500Y381000D01*
X1206500Y419100D01*
X1231900Y444500D01*
X1244600Y444500D01*
M02*
