G04 EAGLE Gerber X2 export*
%TF.Part,Single*%
%TF.FileFunction,Copper,L2,Bot,Mixed*%
%TF.FilePolarity,Positive*%
%TF.GenerationSoftware,Autodesk,EAGLE,9.1.3*%
%TF.CreationDate,2020-01-09T21:36:22Z*%
G75*
%MOMM*%
%FSLAX34Y34*%
%LPD*%
%AMOC8*
5,1,8,0,0,1.08239X$1,22.5*%
G01*
%ADD10C,1.879600*%
%ADD11C,1.676400*%
%ADD12C,1.473200*%
%ADD13C,0.254000*%


D10*
X1485900Y368300D03*
X1485900Y342900D03*
X1638300Y368300D03*
X1638300Y342900D03*
X1485900Y457200D03*
X1485900Y431800D03*
X1244600Y901700D03*
X1270000Y901700D03*
X1295400Y901700D03*
X1320800Y901700D03*
X1346200Y901700D03*
X1371600Y901700D03*
X1320800Y406400D03*
X1244600Y406400D03*
X1320800Y368300D03*
X1244600Y368300D03*
X1320800Y330200D03*
X1244600Y330200D03*
D11*
X1104900Y340400D03*
X1104900Y365800D03*
X1104900Y391200D03*
X1104900Y416600D03*
X1104900Y442000D03*
X1104900Y467400D03*
X1104900Y492800D03*
X1104900Y518200D03*
X1104900Y543600D03*
X850900Y340400D03*
X850900Y365800D03*
X850900Y391200D03*
X850900Y416600D03*
X850900Y442000D03*
D10*
X1320800Y444500D03*
X1244600Y444500D03*
X1638300Y457200D03*
X1638300Y431800D03*
D12*
X850900Y609600D03*
X876300Y609600D03*
X901700Y609600D03*
X927100Y609600D03*
X952500Y609600D03*
X977900Y609600D03*
X1003300Y609600D03*
X1028700Y609600D03*
X1054100Y609600D03*
X1079500Y609600D03*
X1104900Y609600D03*
X1130300Y609600D03*
X1155700Y609600D03*
X1181100Y609600D03*
X1181100Y635000D03*
X1181100Y660400D03*
X1181100Y685800D03*
X1181100Y711200D03*
X1181100Y736600D03*
X1181100Y762000D03*
X1155700Y762000D03*
X1130300Y762000D03*
X1104900Y762000D03*
X1079500Y762000D03*
X1054100Y762000D03*
X1028700Y762000D03*
X1003300Y762000D03*
X977900Y762000D03*
X952500Y762000D03*
X927100Y762000D03*
X901700Y762000D03*
X876300Y762000D03*
X850900Y762000D03*
X876300Y736600D03*
X927100Y736600D03*
X952500Y736600D03*
X977900Y736600D03*
D10*
X1447800Y635000D03*
X1447800Y660400D03*
X1447800Y685800D03*
X1447800Y711200D03*
X1447800Y736600D03*
X1447800Y762000D03*
X1447800Y787400D03*
X1447800Y812800D03*
D13*
X889000Y838200D02*
X838200Y787400D01*
X1257300Y838200D02*
X1320800Y901700D01*
X1257300Y838200D02*
X889000Y838200D01*
X838200Y787400D02*
X838200Y647700D01*
X876300Y609600D01*
X1066800Y292100D02*
X1536700Y292100D01*
X1066800Y292100D02*
X901700Y457200D01*
X901700Y609600D01*
X1574800Y609600D02*
X1574800Y330200D01*
X1574800Y609600D02*
X1587500Y622300D01*
X1625600Y622300D01*
X1638300Y635000D01*
X1638300Y863600D01*
X1371600Y927100D02*
X1346200Y901700D01*
X1574800Y330200D02*
X1536700Y292100D01*
X1638300Y863600D02*
X1574800Y927100D01*
X1371600Y927100D01*
X1231900Y569000D02*
X1104900Y442000D01*
X1231900Y569000D02*
X1231900Y723900D01*
X1193800Y762000D01*
X1181100Y762000D01*
X1079500Y442000D02*
X1104900Y416600D01*
X1079500Y442000D02*
X1079500Y609600D01*
X1130300Y762000D02*
X1141332Y762000D01*
X1151492Y772160D01*
X1412240Y772160D01*
X1447800Y736600D01*
X1130300Y787400D02*
X1104900Y762000D01*
X1130300Y787400D02*
X1270000Y787400D01*
X1282700Y787400D01*
X1333500Y838200D01*
X1562100Y838200D01*
X1574800Y825500D01*
X1574800Y723900D01*
X1562100Y711200D01*
X1447800Y711200D01*
X1117600Y800100D02*
X1079500Y762000D01*
X1117600Y800100D02*
X1270000Y800100D01*
X1320800Y850900D01*
X1574800Y850900D01*
X1587500Y838200D01*
X1587500Y698500D01*
X1574800Y685800D01*
X1447800Y685800D01*
X1104900Y812800D02*
X1054100Y762000D01*
X1104900Y812800D02*
X1270000Y812800D01*
X1320800Y863600D01*
X1587500Y863600D01*
X1600200Y850900D01*
X1600200Y673100D01*
X1587500Y660400D01*
X1447800Y660400D01*
X1092200Y825500D02*
X1028700Y762000D01*
X1092200Y825500D02*
X1270000Y825500D01*
X1600200Y876300D02*
X1612900Y863600D01*
X1612900Y647700D01*
X1600200Y635000D01*
X1447800Y635000D01*
X1270000Y825500D02*
X1320800Y876300D01*
X1600200Y876300D01*
M02*
