G04 EAGLE Gerber X2 export*
%TF.Part,Single*%
%TF.FileFunction,Profile,NP*%
%TF.FilePolarity,Positive*%
%TF.GenerationSoftware,Autodesk,EAGLE,9.1.3*%
%TF.CreationDate,2020-01-09T21:36:22Z*%
G75*
%MOMM*%
%FSLAX34Y34*%
%LPD*%
%AMOC8*
5,1,8,0,0,1.08239X$1,22.5*%
G01*
%ADD10C,0.254000*%


D10*
X825500Y228600D02*
X825806Y226195D01*
X826320Y223825D01*
X827039Y221509D01*
X827957Y219265D01*
X829067Y217109D01*
X830361Y215058D01*
X831829Y213128D01*
X833459Y211333D01*
X835239Y209687D01*
X837157Y208202D01*
X839196Y206890D01*
X841342Y205761D01*
X843578Y204823D01*
X845887Y204084D01*
X848252Y203549D01*
X850655Y203221D01*
X850900Y203200D01*
X1778000Y203200D01*
X1780405Y203506D01*
X1782775Y204020D01*
X1785091Y204739D01*
X1787335Y205657D01*
X1789491Y206767D01*
X1791542Y208061D01*
X1793472Y209529D01*
X1795267Y211159D01*
X1796913Y212940D01*
X1798398Y214857D01*
X1799710Y216896D01*
X1800839Y219042D01*
X1801777Y221278D01*
X1802516Y223587D01*
X1803051Y225952D01*
X1803379Y228355D01*
X1803495Y230777D01*
X1803400Y233200D01*
X1803400Y914400D01*
X1803094Y916805D01*
X1802580Y919175D01*
X1801861Y921491D01*
X1800943Y923735D01*
X1799833Y925891D01*
X1798539Y927942D01*
X1797071Y929872D01*
X1795441Y931667D01*
X1793661Y933313D01*
X1791743Y934798D01*
X1789704Y936110D01*
X1787558Y937239D01*
X1785322Y938177D01*
X1783013Y938916D01*
X1780648Y939451D01*
X1778245Y939779D01*
X1775823Y939895D01*
X1773400Y939800D01*
X850900Y939800D01*
X848495Y939494D01*
X846125Y938980D01*
X843809Y938261D01*
X841565Y937343D01*
X839409Y936233D01*
X837358Y934939D01*
X835428Y933471D01*
X833633Y931841D01*
X831987Y930061D01*
X830502Y928143D01*
X829190Y926104D01*
X828061Y923958D01*
X827123Y921722D01*
X826384Y919413D01*
X825849Y917048D01*
X825521Y914645D01*
X825405Y912223D01*
X825500Y909800D01*
X825500Y228600D01*
X890300Y888500D02*
X890229Y887503D01*
X890086Y886513D01*
X889874Y885536D01*
X889592Y884576D01*
X889243Y883639D01*
X888827Y882729D01*
X888348Y881852D01*
X887807Y881010D01*
X887208Y880210D01*
X886553Y879454D01*
X885846Y878747D01*
X885090Y878092D01*
X884290Y877493D01*
X883448Y876952D01*
X882571Y876473D01*
X881661Y876057D01*
X880724Y875708D01*
X879765Y875426D01*
X878787Y875214D01*
X877798Y875071D01*
X876800Y875000D01*
X875800Y875000D01*
X874803Y875071D01*
X873813Y875214D01*
X872836Y875426D01*
X871876Y875708D01*
X870939Y876057D01*
X870029Y876473D01*
X869152Y876952D01*
X868310Y877493D01*
X867510Y878092D01*
X866754Y878747D01*
X866047Y879454D01*
X865392Y880210D01*
X864793Y881010D01*
X864252Y881852D01*
X863773Y882729D01*
X863357Y883639D01*
X863008Y884576D01*
X862726Y885536D01*
X862514Y886513D01*
X862371Y887503D01*
X862300Y888500D01*
X862300Y889500D01*
X862371Y890498D01*
X862514Y891487D01*
X862726Y892465D01*
X863008Y893424D01*
X863357Y894361D01*
X863773Y895271D01*
X864252Y896148D01*
X864793Y896990D01*
X865392Y897790D01*
X866047Y898546D01*
X866754Y899253D01*
X867510Y899908D01*
X868310Y900507D01*
X869152Y901048D01*
X870029Y901527D01*
X870939Y901943D01*
X871876Y902292D01*
X872836Y902574D01*
X873813Y902786D01*
X874803Y902929D01*
X875800Y903000D01*
X876800Y903000D01*
X877798Y902929D01*
X878787Y902786D01*
X879765Y902574D01*
X880724Y902292D01*
X881661Y901943D01*
X882571Y901527D01*
X883448Y901048D01*
X884290Y900507D01*
X885090Y899908D01*
X885846Y899253D01*
X886553Y898546D01*
X887208Y897790D01*
X887807Y896990D01*
X888348Y896148D01*
X888827Y895271D01*
X889243Y894361D01*
X889592Y893424D01*
X889874Y892465D01*
X890086Y891487D01*
X890229Y890498D01*
X890300Y889500D01*
X890300Y888500D01*
X1766600Y888500D02*
X1766529Y887503D01*
X1766386Y886513D01*
X1766174Y885536D01*
X1765892Y884576D01*
X1765543Y883639D01*
X1765127Y882729D01*
X1764648Y881852D01*
X1764107Y881010D01*
X1763508Y880210D01*
X1762853Y879454D01*
X1762146Y878747D01*
X1761390Y878092D01*
X1760590Y877493D01*
X1759748Y876952D01*
X1758871Y876473D01*
X1757961Y876057D01*
X1757024Y875708D01*
X1756065Y875426D01*
X1755087Y875214D01*
X1754098Y875071D01*
X1753100Y875000D01*
X1752100Y875000D01*
X1751103Y875071D01*
X1750113Y875214D01*
X1749136Y875426D01*
X1748176Y875708D01*
X1747239Y876057D01*
X1746329Y876473D01*
X1745452Y876952D01*
X1744610Y877493D01*
X1743810Y878092D01*
X1743054Y878747D01*
X1742347Y879454D01*
X1741692Y880210D01*
X1741093Y881010D01*
X1740552Y881852D01*
X1740073Y882729D01*
X1739657Y883639D01*
X1739308Y884576D01*
X1739026Y885536D01*
X1738814Y886513D01*
X1738671Y887503D01*
X1738600Y888500D01*
X1738600Y889500D01*
X1738671Y890498D01*
X1738814Y891487D01*
X1739026Y892465D01*
X1739308Y893424D01*
X1739657Y894361D01*
X1740073Y895271D01*
X1740552Y896148D01*
X1741093Y896990D01*
X1741692Y897790D01*
X1742347Y898546D01*
X1743054Y899253D01*
X1743810Y899908D01*
X1744610Y900507D01*
X1745452Y901048D01*
X1746329Y901527D01*
X1747239Y901943D01*
X1748176Y902292D01*
X1749136Y902574D01*
X1750113Y902786D01*
X1751103Y902929D01*
X1752100Y903000D01*
X1753100Y903000D01*
X1754098Y902929D01*
X1755087Y902786D01*
X1756065Y902574D01*
X1757024Y902292D01*
X1757961Y901943D01*
X1758871Y901527D01*
X1759748Y901048D01*
X1760590Y900507D01*
X1761390Y899908D01*
X1762146Y899253D01*
X1762853Y898546D01*
X1763508Y897790D01*
X1764107Y896990D01*
X1764648Y896148D01*
X1765127Y895271D01*
X1765543Y894361D01*
X1765892Y893424D01*
X1766174Y892465D01*
X1766386Y891487D01*
X1766529Y890498D01*
X1766600Y889500D01*
X1766600Y888500D01*
X1766600Y253500D02*
X1766529Y252503D01*
X1766386Y251513D01*
X1766174Y250536D01*
X1765892Y249576D01*
X1765543Y248639D01*
X1765127Y247729D01*
X1764648Y246852D01*
X1764107Y246010D01*
X1763508Y245210D01*
X1762853Y244454D01*
X1762146Y243747D01*
X1761390Y243092D01*
X1760590Y242493D01*
X1759748Y241952D01*
X1758871Y241473D01*
X1757961Y241057D01*
X1757024Y240708D01*
X1756065Y240426D01*
X1755087Y240214D01*
X1754098Y240071D01*
X1753100Y240000D01*
X1752100Y240000D01*
X1751103Y240071D01*
X1750113Y240214D01*
X1749136Y240426D01*
X1748176Y240708D01*
X1747239Y241057D01*
X1746329Y241473D01*
X1745452Y241952D01*
X1744610Y242493D01*
X1743810Y243092D01*
X1743054Y243747D01*
X1742347Y244454D01*
X1741692Y245210D01*
X1741093Y246010D01*
X1740552Y246852D01*
X1740073Y247729D01*
X1739657Y248639D01*
X1739308Y249576D01*
X1739026Y250536D01*
X1738814Y251513D01*
X1738671Y252503D01*
X1738600Y253500D01*
X1738600Y254500D01*
X1738671Y255498D01*
X1738814Y256487D01*
X1739026Y257465D01*
X1739308Y258424D01*
X1739657Y259361D01*
X1740073Y260271D01*
X1740552Y261148D01*
X1741093Y261990D01*
X1741692Y262790D01*
X1742347Y263546D01*
X1743054Y264253D01*
X1743810Y264908D01*
X1744610Y265507D01*
X1745452Y266048D01*
X1746329Y266527D01*
X1747239Y266943D01*
X1748176Y267292D01*
X1749136Y267574D01*
X1750113Y267786D01*
X1751103Y267929D01*
X1752100Y268000D01*
X1753100Y268000D01*
X1754098Y267929D01*
X1755087Y267786D01*
X1756065Y267574D01*
X1757024Y267292D01*
X1757961Y266943D01*
X1758871Y266527D01*
X1759748Y266048D01*
X1760590Y265507D01*
X1761390Y264908D01*
X1762146Y264253D01*
X1762853Y263546D01*
X1763508Y262790D01*
X1764107Y261990D01*
X1764648Y261148D01*
X1765127Y260271D01*
X1765543Y259361D01*
X1765892Y258424D01*
X1766174Y257465D01*
X1766386Y256487D01*
X1766529Y255498D01*
X1766600Y254500D01*
X1766600Y253500D01*
X890300Y253500D02*
X890229Y252503D01*
X890086Y251513D01*
X889874Y250536D01*
X889592Y249576D01*
X889243Y248639D01*
X888827Y247729D01*
X888348Y246852D01*
X887807Y246010D01*
X887208Y245210D01*
X886553Y244454D01*
X885846Y243747D01*
X885090Y243092D01*
X884290Y242493D01*
X883448Y241952D01*
X882571Y241473D01*
X881661Y241057D01*
X880724Y240708D01*
X879765Y240426D01*
X878787Y240214D01*
X877798Y240071D01*
X876800Y240000D01*
X875800Y240000D01*
X874803Y240071D01*
X873813Y240214D01*
X872836Y240426D01*
X871876Y240708D01*
X870939Y241057D01*
X870029Y241473D01*
X869152Y241952D01*
X868310Y242493D01*
X867510Y243092D01*
X866754Y243747D01*
X866047Y244454D01*
X865392Y245210D01*
X864793Y246010D01*
X864252Y246852D01*
X863773Y247729D01*
X863357Y248639D01*
X863008Y249576D01*
X862726Y250536D01*
X862514Y251513D01*
X862371Y252503D01*
X862300Y253500D01*
X862300Y254500D01*
X862371Y255498D01*
X862514Y256487D01*
X862726Y257465D01*
X863008Y258424D01*
X863357Y259361D01*
X863773Y260271D01*
X864252Y261148D01*
X864793Y261990D01*
X865392Y262790D01*
X866047Y263546D01*
X866754Y264253D01*
X867510Y264908D01*
X868310Y265507D01*
X869152Y266048D01*
X870029Y266527D01*
X870939Y266943D01*
X871876Y267292D01*
X872836Y267574D01*
X873813Y267786D01*
X874803Y267929D01*
X875800Y268000D01*
X876800Y268000D01*
X877798Y267929D01*
X878787Y267786D01*
X879765Y267574D01*
X880724Y267292D01*
X881661Y266943D01*
X882571Y266527D01*
X883448Y266048D01*
X884290Y265507D01*
X885090Y264908D01*
X885846Y264253D01*
X886553Y263546D01*
X887208Y262790D01*
X887807Y261990D01*
X888348Y261148D01*
X888827Y260271D01*
X889243Y259361D01*
X889592Y258424D01*
X889874Y257465D01*
X890086Y256487D01*
X890229Y255498D01*
X890300Y254500D01*
X890300Y253500D01*
M02*
