G04 EAGLE Gerber X2 export*
%TF.Part,Single*%
%TF.FileFunction,Soldermask,Top,1*%
%TF.FilePolarity,Negative*%
%TF.GenerationSoftware,Autodesk,EAGLE,9.1.3*%
%TF.CreationDate,2020-01-09T21:36:22Z*%
G75*
%MOMM*%
%FSLAX34Y34*%
%LPD*%
%AMOC8*
5,1,8,0,0,1.08239X$1,22.5*%
G01*
%ADD10C,2.082800*%
%ADD11C,1.879600*%
%ADD12C,3.003200*%
%ADD13C,1.676400*%


D10*
X1485900Y368300D03*
X1485900Y342900D03*
X1638300Y368300D03*
X1638300Y342900D03*
X1485900Y457200D03*
X1485900Y431800D03*
X1244600Y901700D03*
X1270000Y901700D03*
X1295400Y901700D03*
X1320800Y901700D03*
X1346200Y901700D03*
X1371600Y901700D03*
X1320800Y406400D03*
X1244600Y406400D03*
X1320800Y368300D03*
X1244600Y368300D03*
X1320800Y330200D03*
X1244600Y330200D03*
D11*
X1104900Y340400D03*
X1104900Y365800D03*
X1104900Y391200D03*
X1104900Y416600D03*
X1104900Y442000D03*
X1104900Y467400D03*
X1104900Y492800D03*
X1104900Y518200D03*
X1104900Y543600D03*
X850900Y340400D03*
X850900Y365800D03*
X850900Y391200D03*
X850900Y416600D03*
X850900Y442000D03*
D10*
X1320800Y444500D03*
X1244600Y444500D03*
X1638300Y457200D03*
X1638300Y431800D03*
D12*
X876300Y889000D03*
X1752600Y889000D03*
X1752600Y254000D03*
X876300Y254000D03*
D13*
X850900Y609600D03*
X876300Y609600D03*
X901700Y609600D03*
X927100Y609600D03*
X952500Y609600D03*
X977900Y609600D03*
X1003300Y609600D03*
X1028700Y609600D03*
X1054100Y609600D03*
X1079500Y609600D03*
X1104900Y609600D03*
X1130300Y609600D03*
X1155700Y609600D03*
X1181100Y609600D03*
X1181100Y635000D03*
X1181100Y660400D03*
X1181100Y685800D03*
X1181100Y711200D03*
X1181100Y736600D03*
X1181100Y762000D03*
X1155700Y762000D03*
X1130300Y762000D03*
X1104900Y762000D03*
X1079500Y762000D03*
X1054100Y762000D03*
X1028700Y762000D03*
X1003300Y762000D03*
X977900Y762000D03*
X952500Y762000D03*
X927100Y762000D03*
X901700Y762000D03*
X876300Y762000D03*
X850900Y762000D03*
X876300Y736600D03*
X927100Y736600D03*
X952500Y736600D03*
X977900Y736600D03*
D10*
X1447800Y635000D03*
X1447800Y660400D03*
X1447800Y685800D03*
X1447800Y711200D03*
X1447800Y736600D03*
X1447800Y762000D03*
X1447800Y787400D03*
X1447800Y812800D03*
M02*
