G04 EAGLE Gerber RS-274X export*
G75*
%MOMM*%
%FSLAX34Y34*%
%LPD*%
%INBottom Copper*%
%IPPOS*%
%AMOC8*
5,1,8,0,0,1.08239X$1,22.5*%
G01*
G04 Define Apertures*
%ADD10C,1.676400*%
%ADD11C,1.260000*%
%ADD12R,1.308000X1.308000*%
%ADD13C,1.308000*%
%ADD14C,0.152400*%
%ADD15C,0.756400*%
D10*
X746800Y177800D03*
X772200Y177800D03*
X797600Y177800D03*
X823000Y177800D03*
X848400Y177800D03*
X873800Y177800D03*
X899200Y177800D03*
X924600Y177800D03*
X950000Y177800D03*
X746800Y431800D03*
X772200Y431800D03*
X797600Y431800D03*
X823000Y431800D03*
X848400Y431800D03*
D11*
X293340Y406400D03*
X365740Y406400D03*
D12*
X88900Y203200D03*
D13*
X114300Y203200D03*
X139700Y203200D03*
X165100Y203200D03*
X190500Y203200D03*
X215900Y203200D03*
X241300Y203200D03*
X266700Y203200D03*
X292100Y203200D03*
X317500Y203200D03*
X342900Y203200D03*
X368300Y203200D03*
X393700Y203200D03*
X419100Y203200D03*
X444500Y203200D03*
X444500Y355600D03*
X419100Y355600D03*
X393700Y355600D03*
X368300Y355600D03*
X342900Y355600D03*
X317500Y355600D03*
X292100Y355600D03*
X266700Y355600D03*
X241300Y355600D03*
X215900Y355600D03*
X190500Y355600D03*
X165100Y355600D03*
X139700Y355600D03*
X114300Y355600D03*
X88900Y355600D03*
D14*
X365740Y406400D02*
X396678Y406400D01*
X441522Y406400D02*
X441522Y397113D01*
X518464Y440386D02*
X757682Y201168D01*
X224486Y440386D02*
X139700Y355600D01*
X787287Y177800D02*
X797600Y177800D01*
X787287Y177800D02*
X763919Y201168D01*
X757682Y201168D01*
X518464Y440386D02*
X224486Y440386D01*
X749300Y247650D02*
X819150Y177800D01*
X823000Y177800D01*
D15*
X749300Y247650D03*
D14*
X746800Y177800D02*
X742950Y177800D01*
X293340Y356840D02*
X293340Y406400D01*
X293340Y356840D02*
X292100Y355600D01*
D15*
X673100Y419100D03*
D14*
X914400Y177800D01*
X924600Y177800D01*
M02*
