G04 EAGLE Gerber RS-274X export*
G75*
%MOMM*%
%FSLAX34Y34*%
%LPD*%
%INSoldermask Bottom*%
%IPPOS*%
%AMOC8*
5,1,8,0,0,1.08239X$1,22.5*%
G01*
G04 Define Apertures*
%ADD10C,1.879600*%
%ADD11C,1.463200*%
%ADD12C,2.503200*%
%ADD13C,3.003200*%
%ADD14C,1.981200*%
%ADD15R,1.511200X1.511200*%
%ADD16C,1.511200*%
%ADD17C,0.959600*%
D10*
X746800Y177800D03*
X772200Y177800D03*
X797600Y177800D03*
X823000Y177800D03*
X848400Y177800D03*
X873800Y177800D03*
X899200Y177800D03*
X924600Y177800D03*
X950000Y177800D03*
X746800Y431800D03*
X772200Y431800D03*
X797600Y431800D03*
X823000Y431800D03*
X848400Y431800D03*
D11*
X293340Y406400D03*
X365740Y406400D03*
D12*
X419100Y406400D03*
D13*
X50800Y495300D03*
X1092200Y495300D03*
X1092200Y50800D03*
X50800Y50800D03*
D14*
X63500Y203200D03*
D15*
X88900Y203200D03*
D16*
X114300Y203200D03*
X139700Y203200D03*
X165100Y203200D03*
X190500Y203200D03*
X215900Y203200D03*
X241300Y203200D03*
X266700Y203200D03*
X292100Y203200D03*
X317500Y203200D03*
X342900Y203200D03*
X368300Y203200D03*
X393700Y203200D03*
X419100Y203200D03*
X444500Y203200D03*
X444500Y355600D03*
X419100Y355600D03*
X393700Y355600D03*
X368300Y355600D03*
X342900Y355600D03*
X317500Y355600D03*
X292100Y355600D03*
X266700Y355600D03*
X241300Y355600D03*
X215900Y355600D03*
X190500Y355600D03*
X165100Y355600D03*
X139700Y355600D03*
X114300Y355600D03*
X88900Y355600D03*
D14*
X63500Y355600D03*
X469900Y355600D03*
X469900Y203200D03*
D17*
X749300Y247650D03*
X673100Y419100D03*
M02*
